<?xml version="1.0" encoding="UTF-8"?>
<svg version="1.1" xmlns="http://www.w3.org/2000/svg" width="1200" height="1200">
<path d="M0 0 C396 0 792 0 1200 0 C1200 396 1200 792 1200 1200 C804 1200 408 1200 0 1200 C0 804 0 408 0 0 Z M596.75 174.8125 C595.41411251 174.98021655 594.07817514 175.14753625 592.7421875 175.31445312 C586.28852588 176.17472492 580.83399943 177.12138186 575 180 C572.93003453 180.59069746 570.84628918 181.13586586 568.75 181.625 C565.77360956 182.32754901 562.90237511 183.03254163 560 184 C560 184.66 560 185.32 560 186 C559.29875 186.11601562 558.5975 186.23203125 557.875 186.3515625 C554.73188449 187.0604717 551.9687238 188.12540963 549 189.375 C547.989375 189.79523438 546.97875 190.21546875 545.9375 190.6484375 C543.15316032 191.92952996 540.61891119 193.41594453 538 195 C537.319375 195.144375 536.63875 195.28875 535.9375 195.4375 C533.82661079 195.88160247 533.82661079 195.88160247 532.18359375 197.81640625 C529.96494638 200.03505362 527.71001694 201.7283373 525.125 203.5 C524.24714844 204.10585937 523.36929688 204.71171875 522.46484375 205.3359375 C520.55610218 206.62456493 518.62592989 207.88147894 516.6875 209.125 C512.46266035 212.07256254 508.97110328 215.1618374 507 220 C510.5946323 217.99179036 513.37626245 215.81115344 516.3125 212.9375 C529.04417987 201.30305257 545.83687833 192.74591299 562 187 C562.88776123 186.66983887 562.88776123 186.66983887 563.79345703 186.33300781 C574.41178115 182.43346147 585.17686611 180.01595343 596.3125 178.125 C598.1702002 177.80221069 598.1702002 177.80221069 600.06542969 177.47290039 C613.03405294 175.38933469 625.43366877 175.77110977 638.4375 177.3125 C639.61908691 177.45075195 640.80067383 177.58900391 642.01806641 177.73144531 C668.75047258 180.96125853 696.47550064 188.74771147 717.67578125 206.203125 C719.77407721 208.2038789 719.77407721 208.2038789 722 208 C722 208.66 722 209.32 722 210 C723.48994366 211.427627 723.48994366 211.427627 725.4375 212.9375 C738.33110196 224.04095336 747.59207047 239.93764215 753 256 C754.28902977 252.13291068 753.45012347 250.3612668 752.25 246.5 C751.90453125 245.3553125 751.5590625 244.210625 751.203125 243.03125 C750.06665056 240.16792479 749.25152283 238.97240843 747 237 C746.690625 236.21625 746.38125 235.4325 746.0625 234.625 C744.81842896 231.55141273 743.09300203 229.5714025 741 227 C740.17416456 225.67488497 739.36249565 224.34087322 738.5625 223 C735.81862416 218.53381441 733.11735082 214.70578361 728 213 C727.70867187 212.40574219 727.41734375 211.81148437 727.1171875 211.19921875 C725.63593293 208.28332252 723.68071075 206.83355909 721.125 204.8125 C719.82949219 203.77029297 719.82949219 203.77029297 718.5078125 202.70703125 C716.18369374 200.89886124 716.18369374 200.89886124 713.8046875 200.51171875 C713.20914063 200.34285156 712.61359375 200.17398438 712 200 C711.68289063 199.35546875 711.36578125 198.7109375 711.0390625 198.046875 C710.16304211 195.80933983 710.16304211 195.80933983 707.8359375 194.953125 C707.02382813 194.72109375 706.21171875 194.4890625 705.375 194.25 C704.55773437 194.00765625 703.74046875 193.7653125 702.8984375 193.515625 C702.27195312 193.34546875 701.64546875 193.1753125 701 193 C701 192.34 701 191.68 701 191 C700.44014404 190.79842285 699.88028809 190.5968457 699.3034668 190.38916016 C696.7632897 189.4719252 694.22539252 188.54853634 691.6875 187.625 C690.80642578 187.30789062 689.92535156 186.99078125 689.01757812 186.6640625 C687.74624023 186.2 687.74624023 186.2 686.44921875 185.7265625 C685.66893311 185.44377441 684.88864746 185.16098633 684.0847168 184.86962891 C682 184 682 184 679 182 C676.49592098 181.43601824 674.02549659 180.93775274 671.5 180.5 C664.40540541 179.27027027 664.40540541 179.27027027 661 177 C658.52427859 176.5745777 656.11891184 176.25058991 653.625 176 C652.88620605 175.92023926 652.14741211 175.84047852 651.38623047 175.75830078 C648.92501136 175.49651239 646.46261148 175.24832269 644 175 C642.19791349 174.80992591 640.39583022 174.61982114 638.59375 174.4296875 C636.77094504 174.24369358 634.94802952 174.05877975 633.125 173.875 C632.28275879 173.78734375 631.44051758 173.6996875 630.57275391 173.609375 C619.06040449 172.49520421 608.20451617 173.25924953 596.75 174.8125 Z M584 193 C583.67 193.99 583.34 194.98 583 196 C585.97710638 196.82074855 588.95633909 197.63172084 591.9375 198.4375 C592.76830078 198.66759766 593.59910156 198.89769531 594.45507812 199.13476562 C603.6747798 201.61009409 611.14630918 202.11894292 620.61355591 200.78535461 C628.22775672 199.75028287 635.76495181 199.69456784 643.4375 199.75 C644.51144516 199.75265869 644.51144516 199.75265869 645.60708618 199.75537109 C655.10871465 199.78292318 664.44952262 200.12005459 673.85546875 201.5625 C676.94819169 201.99279189 679.8821614 202.07569866 683 202 C680.85061805 199.59135408 679.14759155 198.47067366 676.078125 197.5 C675.30774902 197.25411133 674.53737305 197.00822266 673.74365234 196.75488281 C672.92074707 196.50577148 672.0978418 196.25666016 671.25 196 C669.97116943 195.60699707 669.97116943 195.60699707 668.66650391 195.20605469 C639.98087485 186.59339433 613.05352871 186.25671185 584 193 Z M533.25 214.875 C532.61707031 215.30941406 531.98414063 215.74382812 531.33203125 216.19140625 C525.76740958 220.04383664 520.72426997 224.13437392 516 229 C515.23300781 229.78117187 514.46601562 230.56234375 513.67578125 231.3671875 C500.54069923 245.30557206 490.28273121 261.96427515 485 280.4375 C484.79205811 281.15848877 484.58411621 281.87947754 484.36987305 282.62231445 C483.06109601 287.60919638 481.87777851 292.88374551 483 298 C485.16592158 300.10825977 486.32019492 300.85340029 489 302 C490.12897705 302.50635986 490.12897705 302.50635986 491.28076172 303.02294922 C493.98539389 304.19789953 496.70978922 305.31724354 499.4375 306.4375 C508.01137179 310.0617495 516.21594803 314.09388627 524.3125 318.6875 C525.69683228 319.47048462 525.69683228 319.47048462 527.10913086 320.26928711 C533.31874107 323.85649867 539.17287362 327.82605902 545 332 C546.99885574 333.3766629 548.99870326 334.75188807 551 336.125 C574.52498315 352.3912782 574.52498315 352.3912782 583.0078125 360.23046875 C601.48163392 376.63956895 626.03506088 380.24970541 650 379 C650.66 378.67 651.32 378.34 652 378 C654.03855237 296.52679171 654.03855237 296.52679171 619.625 225.375 C618.75875 224.59125 617.8925 223.8075 617 223 C616.43539062 222.45730469 615.87078125 221.91460937 615.2890625 221.35546875 C602.51372897 210.12198582 583.84669262 207.63778159 567.49536133 207.73925781 C565.43736442 207.75000071 563.38023655 207.73929474 561.32226562 207.7265625 C550.32771616 207.71014555 542.28056708 208.40843526 533.25 214.875 Z M628 212 C627.7018576 215.7763932 627.7018576 215.7763932 629 218 C629.66 218 630.32 218 631 218 C631.40025391 218.86431641 631.40025391 218.86431641 631.80859375 219.74609375 C633.03797589 222.07184291 634.46156285 223.97711851 636.0625 226.0625 C652.4734405 249.29134689 659.24406457 280.19675149 662.0625 308.0625 C662.14048828 308.76826172 662.21847656 309.47402344 662.29882812 310.20117188 C663.88573559 325.45384444 664.1248253 340.68215193 664 356 C663.97340528 359.374996 663.95351654 362.74993931 663.9375 366.125 C663.92920166 366.88941406 663.92090332 367.65382813 663.91235352 368.44140625 C663.81245543 372.34833687 663.81245543 372.34833687 665 376 C670.33397219 376.27459316 674.52575841 375.45274233 679.4375 373.5 C680.12416748 373.23372803 680.81083496 372.96745605 681.51831055 372.69311523 C697.4545071 366.35598849 711.8325143 358.01679637 725 347 C725.7115625 346.43539062 726.423125 345.87078125 727.15625 345.2890625 C737.59198356 336.73978847 744.73405688 324.36315085 746.72265625 310.9921875 C749.0843671 285.51232113 744.30503661 255.98885725 729 235 C714.9117124 219.65487346 687.63418016 215.44583134 668 213 C666.89108398 212.85316772 666.89108398 212.85316772 665.75976562 212.70336914 C657.98000364 211.78425137 650.1949399 211.88821857 642.375 211.9375 C640.97526203 211.94252803 639.5755223 211.94708862 638.17578125 211.95117188 C634.78380831 211.96286833 631.39192767 211.97925914 628 212 Z M504 221 C503.59007812 221.49371094 503.18015625 221.98742187 502.7578125 222.49609375 C502.21898437 223.13675781 501.68015625 223.77742187 501.125 224.4375 C500.59132813 225.07558594 500.05765625 225.71367187 499.5078125 226.37109375 C498 228 498 228 496 229 C494.86649466 231.01669827 494.86649466 231.01669827 494 233 C493.34 233 492.68 233 492 233 C491.566875 234.051875 491.13375 235.10375 490.6875 236.1875 C489.67551322 238.57946876 488.63400799 240.58820145 487.25 242.8125 C486.8375 243.534375 486.425 244.25625 486 245 C486.33 245.66 486.66 246.32 487 247 C487.61746094 246.11699219 488.23492187 245.23398438 488.87109375 244.32421875 C494.29688683 236.61773871 499.91363759 229.20366565 506 222 C505.34 221.67 504.68 221.34 504 221 Z M484 246 C481.39240433 250.84468739 481.39240433 250.84468739 482 256 C482.680625 254.906875 483.36125 253.81375 484.0625 252.6875 C484.44535156 252.07261719 484.82820313 251.45773438 485.22265625 250.82421875 C486.31112074 248.82866925 486.31112074 248.82866925 485 246 C484.67 246 484.34 246 484 246 Z M480 256 C480 256.66 480 257.32 480 258 C479.34 258 478.68 258 478 258 C477.29911844 259.74468372 476.61475991 261.49601161 475.9375 263.25 C475.55464844 264.22453125 475.17179687 265.1990625 474.77734375 266.203125 C473.98886213 269.04007395 473.97562188 270.29409552 475 273 C476.03275341 270.73392948 477.05133551 268.46318061 478.0625 266.1875 C478.35705078 265.54490234 478.65160156 264.90230469 478.95507812 264.24023438 C480.81228081 260.2369489 480.81228081 260.2369489 480 256 Z M754 256 C754.70044067 262.04130076 755.70350701 267.95109203 756.89453125 273.91210938 C758.58066957 282.58976063 759.18798474 291.23990286 759.5625 300.0625 C759.60568359 301.02349609 759.64886719 301.98449219 759.69335938 302.97460938 C759.79821132 305.31630277 759.90037788 307.65807929 760 310 C760.33 310 760.66 310 761 310 C761.45179826 293.1495981 761.41489376 275.39817681 757 259 C756.34 259 755.68 259 755 259 C754.67 258.01 754.34 257.02 754 256 Z M473 273 C472.61823608 273.92026978 472.61823608 273.92026978 472.22875977 274.85913086 C470.82332867 277.3078146 469.81896484 277.97537542 467.33984375 279.25390625 C466.2734668 279.82334961 466.2734668 279.82334961 465.18554688 280.40429688 C464.44369141 280.78650391 463.70183594 281.16871094 462.9375 281.5625 C461.4629054 282.32592452 459.99259759 283.0977037 458.52734375 283.87890625 C457.87499756 284.2147876 457.22265137 284.55066895 456.55053711 284.89672852 C454.67086455 286.00466935 454.67086455 286.00466935 454 289 C459.16071738 287.64191648 463.25707809 285.15031499 467.73046875 282.33984375 C470 281 470 281 473 280 C473.33 277.69 473.66 275.38 474 273 C473.67 273 473.34 273 473 273 Z M446.6875 291.8125 C445.74261719 292.33457031 444.79773438 292.85664063 443.82421875 293.39453125 C438.84455138 296.17200171 438.84455138 296.17200171 434.1875 299.4375 C432.17643496 300.87397503 430.28305491 301.87296431 428.0625 302.9375 C424.63501947 304.60083614 421.97318377 306.60694965 419 309 C416.04338088 310.74891538 413.03295496 312.38771022 410 314 C410 314.66 410 315.32 410 316 C409.278125 316.226875 408.55625 316.45375 407.8125 316.6875 C401.72315008 319.52919663 397.91494941 325.10673272 395 331 C393.01811103 336.5156344 392.46588229 340.50941163 395 346 C395.66 346 396.32 346 397 346 C396.95359375 345.2265625 396.9071875 344.453125 396.859375 343.65625 C396.53496464 334.29469391 398.28768331 328.75401087 404.34692383 321.60595703 C407.75693012 318.29314926 411.9309367 316.03577571 416 313.625 C416.93972656 313.05628174 417.87945312 312.48756348 418.84765625 311.90161133 C420.71621563 310.77119073 422.5872514 309.64485176 424.4609375 308.52294922 C427.65812957 306.60524882 430.8297895 304.64945625 434 302.6875 C437.20430991 300.71206811 440.41452384 298.74815562 443.640625 296.80859375 C444.24390625 296.44354736 444.8471875 296.07850098 445.46875 295.70239258 C447.14893703 294.68612814 448.83218619 293.67493126 450.515625 292.6640625 C453.08676126 291.23835271 453.08676126 291.23835271 454 289 C451.06378127 289 449.23971042 290.39307039 446.6875 291.8125 Z M759 311 C758.67 312.98 758.34 314.96 758 317 C758.66 317 759.32 317 760 317 C760 315.02 760 313.04 760 311 C759.67 311 759.34 311 759 311 Z M758 319 C757.69707031 319.76183594 757.39414062 320.52367187 757.08203125 321.30859375 C754.69006919 327.20386025 752.18348014 332.75290767 748.8203125 338.16015625 C747.67920752 340.16285805 747.67920752 340.16285805 749 343 C754.85579359 337.14420641 758.83680804 327.15959817 759 319 C758.67 319 758.34 319 758 319 Z M747 342 C746.30132813 342.78246094 745.60265625 343.56492187 744.8828125 344.37109375 C743.9637002 345.39337172 743.04442066 346.41549935 742.125 347.4375 C741.66480469 347.95376953 741.20460938 348.47003906 740.73046875 349.00195312 C737.2265625 352.88671875 737.2265625 352.88671875 735 354 C735 354.66 735 355.32 735 356 C734.43796875 356.25523437 733.8759375 356.51046875 733.296875 356.7734375 C730.70613518 358.15692781 728.54892155 359.79938583 726.25 361.625 C725.05117188 362.57246094 725.05117188 362.57246094 723.828125 363.5390625 C723.22484375 364.02117187 722.6215625 364.50328125 722 365 C729.71977846 365 737.74938377 355.05247977 743 350 C744.7778667 348.05508542 746.39215942 346.09019276 748 344 C747.67 343.34 747.34 342.68 747 342 Z M398 348 C398.66 349.32 399.32 350.64 400 352 C400.99 352 401.98 352 403 352 C401.35 350.68 399.7 349.36 398 348 Z M403 353 C403 353.66 403 354.32 403 355 C404.32 355.33 405.64 355.66 407 356 C407 355.34 407 354.68 407 354 C405.68 353.67 404.36 353.34 403 353 Z M408 355 C407.67 355.99 407.34 356.98 407 358 C407.66 358 408.32 358 409 358 C408.67 357.01 408.34 356.02 408 355 Z M411 357 C415.35532149 359.17766075 416.46625958 359.03039555 421 358 C421 357.67 421 357.34 421 357 C417.7 357 414.4 357 411 357 Z M421 358 C422.83284443 359.12516085 422.83284443 359.12516085 425 360 C425.99 359.67 426.98 359.34 428 359 C428 358.67 428 358.34 428 358 C425.69 358 423.38 358 421 358 Z M429 359 C430.45658127 361.91316254 432.36160014 362.09207774 435.375 363.1875 C436.35210937 363.55230469 437.32921875 363.91710937 438.3359375 364.29296875 C441.07360397 365.2804648 441.07360397 365.2804648 444 364 C442.25447527 363.15733289 440.5033792 362.32619962 438.75 361.5 C437.77546875 361.0359375 436.8009375 360.571875 435.796875 360.09375 C432.87964224 358.75719789 432.87964224 358.75719789 429 359 Z M445 366 C445 366.66 445 367.32 445 368 C446.65817208 369.22345759 446.65817208 369.22345759 448.75 370.375 C451.96226788 372.28760473 454.39905964 374.29902347 457 377 C457.66 377 458.32 377 459 377 C459 377.66 459 378.32 459 379 C459.99 378.67 460.98 378.34 462 378 C460.44233138 376.55726615 458.87864043 375.12103292 457.3125 373.6875 C456.44238281 372.88699219 455.57226562 372.08648437 454.67578125 371.26171875 C450.3589707 367.41380856 450.3589707 367.41380856 445 366 Z M720 366 C717.85499201 367.16100432 715.85212977 368.36184065 713.8125 369.6875 C712.63852712 370.43178876 711.46405165 371.17528539 710.2890625 371.91796875 C709.20367188 372.60503906 708.11828125 373.29210937 707 374 C704.68348661 375.36816729 702.34929118 376.68876771 700 378 C700.99 378.495 700.99 378.495 702 379 C704.70379866 378.00409891 704.70379866 378.00409891 707.625 376.5625 C708.62789062 376.08941406 709.63078125 375.61632812 710.6640625 375.12890625 C711.43492187 374.75636719 712.20578125 374.38382812 713 374 C713 373.34 713 372.68 713 372 C713.928125 371.731875 714.85625 371.46375 715.8125 371.1875 C718.76240366 370.08851629 720.05615186 369.37581439 722 367 C721.34 366.67 720.68 366.34 720 366 Z M462 379 C462.66 380.65 463.32 382.3 464 384 C464.99 383.67 465.98 383.34 467 383 C465.35 381.68 463.7 380.36 462 379 Z M690 382 C690 382.66 690 383.32 690 384 C695.71863052 382.71860673 695.71863052 382.71860673 700 379 C696.13304322 379 693.4911548 380.41909971 690 382 Z M680.9375 385.5 C680.27427734 385.73847656 679.61105469 385.97695313 678.92773438 386.22265625 C677.28464844 386.81369436 675.64225889 387.40666775 674 388 C676.56374496 390.99103579 679.47840887 392.31221303 683 394 C685.09148905 395.17307611 687.17430199 396.36170369 689.25 397.5625 C694.80449866 400.76145747 700.39150513 403.89674403 706 407 C712.69885305 410.70656589 719.35747691 414.4749172 725.984375 418.30859375 C732.77556999 422.11764483 737.21131346 423.81296055 745 423 C746.66933058 422.3400321 748.3364521 421.67441131 750 421 C755.06820141 421.38799628 758.6592758 422.56828655 763.0625 425.0625 C764.19042969 425.69542969 765.31835938 426.32835937 766.48046875 426.98046875 C767.65370574 427.65354143 768.82688279 428.32671858 770 429 C771.13050781 429.63550781 772.26101563 430.27101563 773.42578125 430.92578125 C785.14513729 437.54861099 796.75324443 444.3676532 807.92578125 451.8828125 C808.61027344 452.25148438 809.29476562 452.62015625 810 453 C810.66 452.67 811.32 452.34 812 452 C805.6204522 445.0562745 797.01199293 440.40319811 788 438 C788 437.34 788 436.68 788 436 C787.31035156 435.62488281 786.62070312 435.24976563 785.91015625 434.86328125 C784.50056641 434.09564453 784.50056641 434.09564453 783.0625 433.3125 C782.06476563 432.76980469 781.06703125 432.22710937 780.0390625 431.66796875 C776.59605083 429.77829525 773.18200093 427.8406443 769.77734375 425.8828125 C768.03221785 424.85171667 768.03221785 424.85171667 766 425 C765.67 424.01 765.34 423.02 765 422 C758.20881601 418.78312337 753.01608707 418.34282212 745.5625 419.5625 C741.30921336 420.08483345 737.18143314 420.03189874 733 419 C732.67 418.34 732.34 417.68 732 417 C730.14759836 416.16952992 730.14759836 416.16952992 728 415.5 C725.8125 414.78125 725.8125 414.78125 724 414 C723.505 413.01 723.505 413.01 723 412 C721.37832895 411.29051892 719.75345938 410.58745453 718.11328125 409.921875 C713.45902364 407.8915519 708.60743671 405.60743671 705 402 C701.72290651 400.21897093 698.67578582 398.70688189 695 398 C695 397.34 695 396.68 695 396 C694.319375 395.731875 693.63875 395.46375 692.9375 395.1875 C689.60289191 393.83946694 686.30256763 392.42463702 683 391 C683.61875 390.4225 684.2375 389.845 684.875 389.25 C686.81347053 387.19750179 687.90014249 385.56633418 689 383 C686.34680163 383 683.44587801 384.59276651 680.9375 385.5 Z M468 385 C468.26676204 386.98491642 468.26676204 386.98491642 469 389 C469.99 389.33 470.98 389.66 472 390 C470.1728553 395.82402373 468.14915092 398.06882015 462.83984375 401.0546875 C461.56361491 401.71041442 460.28335119 402.3583244 459 403 C459 403.66 459 404.32 459 405 C464.17779255 403.63742301 468.32141763 401.13263665 472.828125 398.33984375 C475 397 475 397 477 396 C475.59928507 390.70841026 472.14512755 388.22521956 468 385 Z M643.4375 396.875 C642.45330078 397.33519531 641.46910156 397.79539062 640.45507812 398.26953125 C639.05225586 398.93662109 639.05225586 398.93662109 637.62109375 399.6171875 C636.7592749 400.02565918 635.89745605 400.43413086 635.00952148 400.85498047 C632.84858676 401.8397233 632.84858676 401.8397233 632 404 C643.77362696 421.36032839 661.9489982 430.18813864 682.0859375 434.44140625 C695.15128 436.94588879 708.18285623 436.94652167 721 433 C721.99 432.01 721.99 432.01 723 431 C714.83201176 426.15783866 706.65875889 421.32964293 698.375 416.6875 C697.74182861 416.33260498 697.10865723 415.97770996 696.45629883 415.61206055 C694.30460624 414.40731162 692.15232044 413.20362687 690 412 C686.05986272 409.79633601 682.12293042 407.58705752 678.1875 405.375 C676.77380127 404.5854895 676.77380127 404.5854895 675.33154297 403.7800293 C669.48129948 400.48817893 663.81061411 397.00646965 658.20825195 393.30712891 C653.25305663 390.37400389 648.13369381 394.63342425 643.4375 396.875 Z M450 408 C449.67 408.99 449.34 409.98 449 411 C453.43090471 409.79157144 455.98112756 408.48331435 459 405 C455.24633583 405 453.21284338 406.11420063 450 408 Z M477.25 409.1875 C470.82050845 413.27159168 464.32044028 417.20956369 457.75 421.0625 C446.15215541 427.87670634 434.65567108 434.85293711 423.16925049 441.85249329 C419.31561752 444.20054225 415.45785768 446.5416632 411.59765625 448.87890625 C396.15899971 458.21765296 396.15899971 458.21765296 381 468 C379.98421875 468.67417969 378.9684375 469.34835937 377.921875 470.04296875 C371.54433678 474.45097311 366.50331339 478.99337321 363 486 C362.04547917 493.06828713 362.82785974 497.97500968 366.90625 503.83203125 C372.48153337 509.60494594 379.34820586 513.51427792 386.3125 517.375 C394.63121106 522.05543727 402.86515936 526.86024351 411.0625 531.75 C420.42553908 537.32600508 429.83935222 542.80074126 439.3125 548.1875 C449.35366167 553.89867912 459.33344556 559.70281031 469.265625 565.6015625 C475.88927005 569.53420588 482.53906357 573.4219991 489.1875 577.3125 C498.70718176 582.88400814 508.20595455 588.48875947 517.6875 594.125 C527.80045432 600.13608247 537.96643633 606.04473106 548.17602539 611.88989258 C553.73971001 615.08348461 559.22121928 618.35669837 564.625 621.8125 C574.36131599 627.83725392 584.61163636 628.34571517 595.75 626 C618.46337778 619.57719394 639.60488706 603.69896049 659.59228516 591.63330078 C668.20387335 586.44577641 676.90148142 581.41728752 685.62109375 576.4140625 C692.12332785 572.6772364 698.58311951 568.88142057 705 565 C713.78532443 559.68712512 722.66615809 554.54868472 731.56713867 549.43237305 C737.66849711 545.92466746 743.75525627 542.39581317 749.8125 538.8125 C761.82234186 531.72207133 773.9270477 524.79771354 786.12890625 518.04296875 C786.73561157 517.70695145 787.34231689 517.37093414 787.96740723 517.0247345 C790.95559433 515.37066594 793.94584934 513.72058863 796.93896484 512.07543945 C806.86351186 507.53096438 806.86351186 507.53096438 813.0625 499.5625 C812.99459127 495.69170253 812.3069974 494.04523657 810 491 C801.6622061 492.85856881 794.2114996 498.14138289 786.9375 502.4375 C778.8312487 507.19768197 770.69564525 511.89544213 762.5 516.5 C753.67953934 521.46094409 744.92086942 526.51941609 736.18701172 531.63110352 C728.84781824 535.92581627 721.4922645 540.1911251 714.125 544.4375 C713.04645752 545.05923096 711.96791504 545.68096191 710.85668945 546.3215332 C706.47454164 548.84692169 702.09174963 551.37119109 697.70898438 553.89550781 C694.43068938 555.78398493 691.15271515 557.67301666 687.875 559.5625 C686.79605469 560.18447266 685.71710938 560.80644531 684.60546875 561.44726562 C677.431281 565.58688419 670.274356 569.75517421 663.125 573.9375 C653.81953825 579.38113333 644.47049194 584.74554853 635.09793091 590.07250977 C628.86805259 593.6137967 622.65877815 597.18328144 616.51171875 600.8671875 C615.50447754 601.47038818 614.49723633 602.07358887 613.45947266 602.69506836 C611.58143206 603.82464663 609.70714846 604.96050433 607.83740234 606.10375977 C607.00547363 606.60447998 606.17354492 607.1052002 605.31640625 607.62109375 C604.24048218 608.27742798 604.24048218 608.27742798 603.14282227 608.94702148 C599.27870313 610.84584179 596.09910146 611.36636715 592 610 C591.51430623 606.86997347 591.22800261 605.00255519 592 602 C593.56884766 600.52172852 593.56884766 600.52172852 595.7265625 599.19140625 C596.54793701 598.68029297 597.36931152 598.16917969 598.21557617 597.64257812 C602.84208602 594.91332269 607.47970047 592.20958323 612.15704346 589.56808472 C614.62372725 588.17492545 617.08609285 586.77420869 619.54876709 585.37397766 C620.82350632 584.64924366 622.09845027 583.92486964 623.37359619 583.20085144 C629.64042301 579.64138571 635.88483305 576.04348053 642.125 572.4375 C643.1869458 571.82406738 644.2488916 571.21063477 645.34301758 570.57861328 C647.48656911 569.34030467 649.63004263 568.10186101 651.7734375 566.86328125 C655.03524007 564.9796495 658.29861844 563.09877679 661.5625 561.21875 C672.05738995 555.17252642 682.54224179 549.11025724 693 543 C711.06378518 532.44769676 729.19755144 522.01873816 747.37081909 511.65640259 C754.86382086 507.38273947 762.32988955 503.06911939 769.74633789 498.66381836 C776.72734594 494.53397534 783.80786246 490.57935775 790.89770508 486.63989258 C801.62018075 481.18578873 801.62018075 481.18578873 810 473 C810.21726646 470.56457789 810.21726646 470.56457789 809 468 C803.27519136 462.40871459 796.55031399 458.4337986 789.72875977 454.33911133 C787.80134959 453.18079895 785.88187356 452.01010012 783.96289062 450.83789062 C782.73222014 450.09300717 781.50111548 449.34884046 780.26953125 448.60546875 C779.16198486 447.93668701 778.05443848 447.26790527 776.91333008 446.57885742 C774.50133261 445.27169346 772.7052895 444.3140406 770 444 C767.68491084 445.14801529 767.68491084 445.14801529 765.3125 446.9375 C739.17127568 464.2958262 705.40302977 471.9940329 674.5234375 466.01953125 C654.73596623 461.79011614 634.28976218 451.08496889 619 438 C618.13632812 437.29617188 617.27265625 436.59234375 616.3828125 435.8671875 C609.80574614 430.2896753 604.92343775 424.02838578 600 417 C596.68160019 417.59009964 593.70572258 418.40255404 590.5859375 419.671875 C589.7515918 420.00437256 588.91724609 420.33687012 588.05761719 420.67944336 C587.17235352 421.03272705 586.28708984 421.38601074 585.375 421.75 C578.25289649 424.52572712 571.14540032 426.99533374 563.75 428.9375 C563.00153809 429.13633789 562.25307617 429.33517578 561.48193359 429.54003906 C543.05997591 434.17537411 524.10174917 433.02625068 507.22265625 423.94921875 C499.45520192 419.25108577 493.35612936 413.67792742 487.59375 406.6875 C486.80484375 405.8521875 486.80484375 405.8521875 486 405 C482.61505838 405 480.02540291 407.39699372 477.25 409.1875 Z M612 411 C615.73848769 424.29240069 631.81028238 433.49763756 643 440 C670.49099679 455.35732584 697.30845342 459.85020948 728.06811523 451.24389648 C738.20889038 448.20743007 749.25905887 444.07916141 758 438 C758 437.34 758 436.68 758 436 C752.57986722 432.8188837 747.45323773 434.50935245 741.5625 435.6875 C738.4193723 436.84549442 736.21876543 438.07668994 733.4375 439.875 C715.88334088 450.76976644 693.6386872 449.03748251 674.22851562 444.93041992 C665.29386679 442.82286618 657.15846225 439.13865801 649 435 C648.04609375 434.52820313 647.0921875 434.05640625 646.109375 433.5703125 C636.06977279 428.09711 626.75024697 419.39499786 620.953125 409.546875 C620.48132813 408.78117187 620.48132813 408.78117187 620 408 C617.39060143 408 614.3598011 409.97026861 612 411 Z M447 411 C444.06308225 412.22398525 444.06308225 412.22398525 440.875 413.9375 C439.23144531 414.78634766 439.23144531 414.78634766 437.5546875 415.65234375 C436.71164062 416.09707031 435.86859375 416.54179687 435 417 C435 417.66 435 418.32 435 419 C434.071875 419.268125 433.14375 419.53625 432.1875 419.8125 C429.23759634 420.91148371 427.94384814 421.62418561 426 424 C426.99 424.495 426.99 424.495 428 425 C430.90516603 423.48965567 430.90516603 423.48965567 434.125 421.375 C434.70596436 421.00761719 435.28692871 420.64023437 435.88549805 420.26171875 C437.59407512 419.18037088 439.29712977 418.09031272 441 417 C442.60286393 415.99791322 444.20675543 414.99746431 445.8125 414 C446.864375 413.34 447.91625 412.68 449 412 C448.34 411.67 447.68 411.34 447 411 Z M422 426 C419.97085155 426.99367798 419.97085155 426.99367798 417.875 428.4375 C417.15054687 428.91058594 416.42609375 429.38367188 415.6796875 429.87109375 C415.12539063 430.24363281 414.57109375 430.61617188 414 431 C414.99 431.495 414.99 431.495 416 432 C418.02914845 431.00632202 418.02914845 431.00632202 420.125 429.5625 C420.84945313 429.08941406 421.57390625 428.61632812 422.3203125 428.12890625 C423.15175781 427.57009766 423.15175781 427.57009766 424 427 C423.34 426.67 422.68 426.34 422 426 Z M412 432 C409.98074133 432.76600582 409.98074133 432.76600582 407.875 433.9375 C407.15054687 434.31777344 406.42609375 434.69804687 405.6796875 435.08984375 C404.84824219 435.54037109 404.84824219 435.54037109 404 436 C404 436.66 404 437.32 404 438 C403.01 438.33 402.02 438.66 401 439 C401.99 439.495 401.99 439.495 403 440 C405.71837571 438.54814647 405.71837571 438.54814647 408.625 436.5625 C409.62789063 435.90378906 410.63078125 435.24507813 411.6640625 434.56640625 C412.82035156 433.79103516 412.82035156 433.79103516 414 433 C413.34 432.67 412.68 432.34 412 432 Z M398 440 C396.1051796 440.97229848 396.1051796 440.97229848 394.3125 442.4375 C393.68988281 442.91058594 393.06726563 443.38367188 392.42578125 443.87109375 C391.95527344 444.24363281 391.48476563 444.61617188 391 445 C391.99 445.495 391.99 445.495 393 446 C395.02914845 445.00632202 395.02914845 445.00632202 397.125 443.5625 C397.84945313 443.08941406 398.57390625 442.61632812 399.3203125 442.12890625 C400.15175781 441.57009766 400.15175781 441.57009766 401 441 C400.01 440.67 399.02 440.34 398 440 Z M389 445 C389 445.66 389 446.32 389 447 C388.113125 447.2475 387.22625 447.495 386.3125 447.75 C382.84738973 449.05758878 380.83537017 450.66081961 378 453 C376 454 374 455 372 456 C368.9564403 457.93681072 365.97768716 459.96382916 363 462 C362.01 462.66 361.02 463.32 360 464 C359.67 464.99 359.34 465.98 359 467 C358.38640625 467.26941406 357.7728125 467.53882813 357.140625 467.81640625 C354.03765233 469.53210099 353.26585271 471.77947352 351.75 474.9375 C351.22921875 475.99839844 350.7084375 477.05929687 350.171875 478.15234375 C348.8097208 480.94915234 348.8097208 480.94915234 349 484 C348.34 484 347.68 484 347 484 C346.89167831 486.08218362 346.81426459 488.16599129 346.75 490.25 C346.70359375 491.41015625 346.6571875 492.5703125 346.609375 493.765625 C347.06964494 497.57666013 348.05148444 498.65511755 351 501 C350.89300781 500.16597656 350.78601563 499.33195312 350.67578125 498.47265625 C349.40214261 486.51688707 351.53481274 480.05406678 358.86328125 470.5546875 C365.00393364 463.21284716 372.46182079 458.69863774 380.65380859 453.90625 C384.57169449 451.59661924 387.97565611 449.47149151 391 446 C390.34 445.67 389.68 445.34 389 445 Z M812 453 C815.20760251 456.80635497 818.40746109 460.54563567 822 464 C821.42274324 460.10351684 819.68124732 457.8302055 817 455 C814.38181544 453.66701026 814.38181544 453.66701026 812 453 Z M822 464 C822.11382653 465.95901454 822.24141125 467.9172338 822.375 469.875 C822.44460938 470.96554687 822.51421875 472.05609375 822.5859375 473.1796875 C822.73253491 476.13046474 822.73253491 476.13046474 825 478 C825 473.71 825 469.42 825 465 C824.01 464.67 823.02 464.34 822 464 Z M822 476 C823 479 823 479 823 479 Z M821 479 C818.62984755 481.65484449 818.62984755 481.65484449 818 485 C819.175625 486.1446875 819.175625 486.1446875 820.375 487.3125 C824.13355597 491.16054539 824.90489533 493.52587761 825.25 498.875 C825.15917331 502.85623669 824.25560384 506.23318849 823 510 C823.66 510.33 824.32 510.66 825 511 C828.06189478 502.86954492 828.7623533 496.18339206 825.9375 487.875 C825.4734375 486.946875 825.4734375 486.946875 825 486 C824.34 486 823.68 486 823 486 C822.67 483.69 822.34 481.38 822 479 C821.67 479 821.34 479 821 479 Z M351 502 C351.4979837 505.73487777 351.87491756 507.81237635 354 511 C354.66 511 355.32 511 356 511 C356 511.99 356 512.98 356 514 C358.95129638 517.37291015 361.93278928 520.0734265 366 522 C366.99 521.67 367.98 521.34 369 521 C368.43152344 520.61070312 367.86304688 520.22140625 367.27734375 519.8203125 C361.80864531 515.8580168 358.0800172 511.80201236 354.41015625 506.13671875 C353.04205109 503.90826532 353.04205109 503.90826532 351 502 Z M822 510 C820.68 511.65 819.36 513.3 818 515 C819.32 514.34 820.64 513.68 822 513 C822 512.01 822 511.02 822 510 Z M809.875 518.5 C809.15054688 518.9640625 808.42609375 519.428125 807.6796875 519.90625 C807.12539063 520.2671875 806.57109375 520.628125 806 521 C806.99 521.495 806.99 521.495 808 522 C811.60837294 520.82262331 811.60837294 520.82262331 815 519 C815.33 518.01 815.66 517.02 816 516 C813.32449708 516 812.10955359 517.05835252 809.875 518.5 Z M369 522 C369 522.99 369 523.98 369 525 C370.78710586 525.86366822 372.5798465 526.71568594 374.375 527.5625 C375.37273437 528.03816406 376.37046875 528.51382813 377.3984375 529.00390625 C378.68621094 529.49697266 378.68621094 529.49697266 380 530 C380.66 529.67 381.32 529.34 382 529 C380.21190303 527.82786955 378.41940875 526.66244474 376.625 525.5 C375.62726563 524.8503125 374.62953125 524.200625 373.6015625 523.53125 C371.21585803 521.8309179 371.21585803 521.8309179 369 522 Z M802 523 C800.20459489 523.76501555 800.20459489 523.76501555 798.375 524.9375 C797.26125 525.618125 796.1475 526.29875 795 527 C795.99 527.33 796.98 527.66 798 528 C801.18288354 526.12821884 801.18288354 526.12821884 804 524 C803.34 523.67 802.68 523.34 802 523 Z M788.88671875 530.125 C787.64100098 530.80888794 787.64100098 530.80888794 786.37011719 531.5065918 C785.48485352 531.9994165 784.59958984 532.49224121 783.6875 533 C782.79063477 533.49604736 781.89376953 533.99209473 780.96972656 534.50317383 C773.84842879 538.46789062 766.87458875 542.62184038 760 547 C761.89339451 547.64673402 761.89339451 547.64673402 764 548 C765.70129335 546.7111414 767.35746695 545.36295295 769 544 C778.08 538.64 778.08 538.64 783 537 C783 536.34 783 535.68 783 535 C784.051875 534.773125 785.10375 534.54625 786.1875 534.3125 C790.1597906 533.20639469 792.29599637 531.11370115 795 528 C792.4189515 528 791.14814741 528.88014995 788.88671875 530.125 Z M382 530 C382.48705712 532.06402968 382.48705712 532.06402968 384 534 C387.56206661 534.81870185 387.56206661 534.81870185 391 535 C388.47043472 531.9083091 385.77545388 531.09068668 382 530 Z M391 535 C391.67171444 538.06892234 391.67171444 538.06892234 393.875 539.1875 C396.08785353 540.17856873 396.08785353 540.17856873 399 540 C399 540.66 399 541.32 399 542 C400.32 541.67 401.64 541.34 403 541 C401.37829621 539.99466333 399.75252763 538.99588093 398.125 538 C397.22007812 537.443125 396.31515625 536.88625 395.3828125 536.3125 C393.16142533 534.83917671 393.16142533 534.83917671 391 535 Z M405 543 C408.12840505 547.11161806 409.99688109 549.37398635 415 551 C415.825 551.515625 416.65 552.03125 417.5 552.5625 C420.05674363 554.03262759 422.10026145 554.58575164 425 555 C422.98405311 552.86187451 421.01104183 551.25292367 418.49609375 549.73828125 C417.83802734 549.34189453 417.17996094 548.94550781 416.50195312 548.53710938 C415.82068359 548.13298828 415.13941406 547.72886719 414.4375 547.3125 C413.75236328 546.89677734 413.06722656 546.48105469 412.36132812 546.05273438 C408.92170074 543.78888941 408.92170074 543.78888941 405 543 Z M751.28125 551.58984375 C750.34925781 552.12673828 749.41726563 552.66363281 748.45703125 553.21679688 C747.48121094 553.78462891 746.50539063 554.35246094 745.5 554.9375 C743.57311411 556.05112295 741.64604004 557.16442039 739.71875 558.27734375 C738.86216797 558.77484131 738.00558594 559.27233887 737.12304688 559.78491211 C735.76899958 560.55987685 734.39542522 561.30228739 733 562 C734.50620255 566.34592202 737.25401868 567.56742024 741.1875 569.6875 C742.46703607 570.39030875 743.74565302 571.09479293 745.0234375 571.80078125 C745.68311523 572.16252441 746.34279297 572.52426758 747.02246094 572.89697266 C750.16388199 574.64918751 753.23705894 576.51012671 756.3125 578.375 C761.72664774 581.64490974 767.16678046 584.86672956 772.625 588.0625 C778.60005556 591.5653029 784.52403985 595.1370596 790.40234375 598.80078125 C793.24193528 600.55539945 796.11777254 602.24108785 799.00390625 603.91796875 C800.33264771 604.69648193 800.33264771 604.69648193 801.68823242 605.49072266 C803.43201454 606.51084708 805.18063903 607.52275539 806.93481445 608.52490234 C813.15347404 612.17931235 818.89821987 616.13899506 822.4140625 622.59765625 C823.06660748 625.27309067 823.33592188 627.6824922 823.375 630.4375 C823.40335938 631.34371094 823.43171875 632.24992188 823.4609375 633.18359375 C823 636 823 636 820.9921875 638.63671875 C818.10338645 643.51369465 818.56375667 647.82351625 818.75 653.375 C818.76804687 654.39722656 818.78609375 655.41945313 818.8046875 656.47265625 C818.85160509 658.98274749 818.91723271 661.49087764 819 664 C819.66 664.33 820.32 664.66 821 665 C821.0093457 664.35973877 821.01869141 663.71947754 821.02832031 663.05981445 C821.08218847 660.14327625 821.16580199 657.22831375 821.25 654.3125 C821.26417969 653.30509766 821.27835938 652.29769531 821.29296875 651.25976562 C821.48943862 645.30672865 821.97948148 642.56189528 826 638 C826.51883935 634.52406124 826.51883935 634.52406124 826.3125 630.875 C826.28800781 629.65554688 826.26351562 628.43609375 826.23828125 627.1796875 C826.12866849 623.97858985 826.12866849 623.97858985 825 621 C824.34 621 823.68 621 823 621 C821.79371992 618.66785852 820.8345262 616.50357861 820 614 C817.62484666 612.19355967 817.62484666 612.19355967 814.75 610.5 C813.79609375 609.9121875 812.8421875 609.324375 811.859375 608.71875 C810.06394046 607.63952705 808.2672511 606.56238607 806.46875 605.48828125 C803.87228762 603.92300884 801.30824619 602.31445482 798.75 600.6875 C797.7909375 600.07777344 796.831875 599.46804688 795.84375 598.83984375 C793.28248397 597.18276092 790.76458028 595.47662105 788.25 593.75 C785.60623087 591.96379756 783.0832269 590.50693053 780.125 589.3125 C777 588 777 588 775.6015625 586.5703125 C773.65426653 584.66101255 771.71130187 583.72817868 769.25 582.5625 C763.02221635 579.53447747 757.28534108 576.25236361 751.69140625 572.16015625 C749.26040652 570.49270378 746.65538997 569.26996911 744 568 C742.32376502 567.01612294 740.65365406 566.02137457 739 565 C741.44394513 561.68321733 743.26020456 559.68893987 747 558 C747.45375 557.525625 747.9075 557.05125 748.375 556.5625 C750 555 750 555 753.0625 553.5 C756.23025749 552.18410745 756.23025749 552.18410745 758 549 C755.20638079 549 753.69480216 550.19124566 751.28125 551.58984375 Z M425 555 C428.32928281 558.74544316 432.37002367 562.01959997 437 564 C439.1994407 563.71712455 439.1994407 563.71712455 441 563 C438.71125827 561.66141476 436.41930344 560.32898986 434.125 559 C433.47402344 558.6184375 432.82304687 558.236875 432.15234375 557.84375 C428.79649799 555.72448844 428.79649799 555.72448844 425 555 Z M441 564 C441 564.99 441 565.98 441 567 C441.66 567.33 442.32 567.66 443 568 C443 571 443 571 441.5 572.9375 C438.85074111 575.12313859 436.304182 576.40418275 433.22265625 577.8671875 C427.60713698 580.7292272 422.19490379 584.25793485 418 589 C423.20647116 587.54703131 427.21313034 585.16717694 431.6875 582.25 C437.99644923 578.21490122 444.35537238 574.46308982 451 571 C451 570.34 451 569.68 451 569 C449.28198718 567.63362347 449.28198718 567.63362347 447.125 566.375 C446.40570313 565.92898438 445.68640625 565.48296875 444.9453125 565.0234375 C443.07135238 563.84480002 443.07135238 563.84480002 441 564 Z M712 574.625 C710.82988659 575.36010693 709.65930786 576.09447367 708.48828125 576.828125 C707.61163818 577.37823242 707.61163818 577.37823242 706.71728516 577.93945312 C703.436804 579.96538576 700.08109717 581.86640256 696.73046875 583.7734375 C695.87388672 584.38058594 695.87388672 584.38058594 695 585 C695 585.66 695 586.32 695 587 C698.63 588.98 702.26 590.96 706 593 C706.66644531 592.43152344 707.33289063 591.86304688 708.01953125 591.27734375 C714.3957243 585.93560999 720.86367477 581.29283781 728 577 C725.54774487 574.44765282 723.13079636 572.68581342 720 571 C716.77918173 571 714.69043349 572.93078834 712 574.625 Z M456.6953125 581.04296875 C455.64802979 581.69813477 454.60074707 582.35330078 453.52172852 583.02832031 C452.69162766 583.55601013 452.69162766 583.55601013 451.84475708 584.09436035 C448.91912388 585.95399837 445.97580026 587.78532323 443.03515625 589.62109375 C442.44026901 589.99364288 441.84538177 590.36619202 441.23246765 590.75003052 C435.73530433 594.18576346 430.16053124 597.48145908 424.5625 600.75 C416.08980127 605.71633314 407.75383482 610.86526637 399.48046875 616.15625 C396.54756117 618.02985813 393.59515712 619.86163349 390.61328125 621.65625 C380.34692527 627.8569918 370.52588935 633.9482213 365 645 C364.2363422 650.74193336 364.11443737 655.57203702 367.625 660.375 C373.2185835 667.09321933 380.38665901 671.16326947 387.875 675.4375 C390.03003155 676.68084464 392.18497699 677.92433853 394.33984375 679.16796875 C395.44183105 679.80138184 396.54381836 680.43479492 397.67919922 681.08740234 C402.94459144 684.11997716 408.19070355 687.18540251 413.4375 690.25 C414.44047119 690.83491211 415.44344238 691.41982422 416.47680664 692.02246094 C421.57522437 694.99622346 426.66924774 697.97713566 431.75390625 700.97436523 C433.7695509 702.16218998 435.78698038 703.34693292 437.8046875 704.53125 C440.94212369 706.37341437 444.06936465 708.23216609 447.1953125 710.09375 C448.94252664 711.12530781 450.68991911 712.15656364 452.4375 713.1875 C453.26161377 713.68209717 454.08572754 714.17669434 454.93481445 714.6862793 C455.69753662 715.13398682 456.46025879 715.58169434 457.24609375 716.04296875 C457.92341553 716.44539795 458.6007373 716.84782715 459.29858398 717.26245117 C459.86005127 717.50584229 460.42151855 717.7492334 461 718 C461.66 717.67 462.32 717.34 463 717 C463.31885017 714.51850832 463.31885017 714.51850832 463.375 711.5625 C464.12168301 701.05915899 468.1056048 693.80605077 475 686 C475.56203125 685.35546875 476.1240625 684.7109375 476.703125 684.046875 C482.95951445 677.35525846 490.52054631 672.21852594 498 667 C498.60231445 666.57960449 499.20462891 666.15920898 499.82519531 665.72607422 C509.82997482 658.79863069 520.24403952 652.58068672 530.70263672 646.36914062 C538.94162145 641.45902093 547.07572238 636.40570876 555 631 C551.4801167 628.04973614 547.91359821 625.67808684 543.9140625 623.42578125 C543.34057068 623.100867 542.76707886 622.77595276 542.1762085 622.44119263 C540.95727971 621.7510151 539.73728283 621.06272098 538.51629639 620.37619019 C535.32329988 618.58040658 532.13850561 616.77018511 528.953125 614.9609375 C528.3329953 614.60911911 527.7128656 614.25730072 527.07394409 613.89482117 C521.66532898 610.82160556 516.34047746 607.63098923 511.0234375 604.40234375 C504.2747784 600.33915586 497.41622731 596.45903403 490.58300781 592.54052734 C485.7346615 589.75496035 480.89612567 586.96432009 476.1328125 584.03515625 C475.44058594 583.60976563 474.74835938 583.184375 474.03515625 582.74609375 C472.2708466 581.65287121 470.51397619 580.54766714 468.7578125 579.44140625 C463.77338672 576.83623187 461.1087805 578.24940669 456.6953125 581.04296875 Z M731 589.5625 C730.2059375 590.10197266 729.411875 590.64144531 728.59375 591.19726562 C724.31368885 594.15407454 720.53007718 597.17812209 717 601 C717.84820313 601.47308594 718.69640625 601.94617188 719.5703125 602.43359375 C726.19392367 606.15615111 732.68585203 610.00729413 739.05444336 614.15673828 C745.9093169 618.61514729 752.85231086 622.93171615 759.79956055 627.24438477 C764.76751487 630.33291024 769.71014075 633.44740286 774.59375 636.66796875 C775.88792847 637.51331177 775.88792847 637.51331177 777.20825195 638.37573242 C778.8216099 639.43271621 780.42741839 640.50134477 782.02416992 641.58325195 C786.00564399 644.26018627 786.00564399 644.26018627 790.61328125 645.01953125 C793.67011999 643.7137458 796.58050107 642.28026402 799.5 640.6875 C800.6034375 640.09324219 801.706875 639.49898437 802.84375 638.88671875 C805.82788646 637.1028847 808.46272027 635.37782037 811 633 C811.5640591 629.51634999 811.5640591 629.51634999 810 626 C804.07846986 620.19156171 796.0454185 616.33215819 788.9375 612.1875 C787.7207156 611.4731078 786.5042463 610.75817864 785.28808594 610.04272461 C782.91489826 608.64688993 780.54065019 607.25289055 778.16552734 605.86035156 C774.34702546 603.61625282 770.54413073 601.34748805 766.75 599.0625 C765.63367188 598.3921875 764.51734375 597.721875 763.3671875 597.03125 C760.88973691 595.53673225 758.41626823 594.03642436 755.9453125 592.53125 C755.26500977 592.11866943 754.58470703 591.70608887 753.88378906 591.28100586 C752.58954065 590.49593126 751.2970754 589.70790565 750.00683594 588.91625977 C748.35473612 587.91581138 746.67804898 586.95628574 745 586 C744.21882812 585.47148438 743.43765625 584.94296875 742.6328125 584.3984375 C737.96028313 583.69131881 734.68068533 586.93642662 731 589.5625 Z M416 589 C413.54588972 590.14937583 413.54588972 590.14937583 410.9375 591.8125 C410.03902344 592.35519531 409.14054687 592.89789062 408.21484375 593.45703125 C405.8954045 594.81063886 405.8954045 594.81063886 405 597 C409.77609498 595.35821735 413.79382904 592.73453298 418 590 C417.34 589.67 416.68 589.34 416 589 Z M673.1875 597.6875 C672.13840454 598.28763916 672.13840454 598.28763916 671.06811523 598.89990234 C668.70631585 600.25690449 666.35218803 601.6264083 664 603 C663.17467773 603.48194824 662.34935547 603.96389648 661.49902344 604.46044922 C652.80689926 609.54985146 644.13755149 614.67225687 635.5625 619.95703125 C615.78496488 632.10308193 599.6200076 640.00960271 576 639 C574.18435547 638.51080078 574.18435547 638.51080078 572.33203125 638.01171875 C565.78783145 637.14758547 560.05669433 642.22552504 554.8125 645.625 C553.56768166 646.4101475 552.32157199 647.19325116 551.07421875 647.97436523 C548.56299735 649.55071814 546.05919523 651.13789607 543.56103516 652.73486328 C539.45405955 655.35589381 535.30136915 657.9000734 531.14501953 660.44189453 C518.66954852 668.08562506 506.59531471 676.05811049 495 685 C494.02546875 685.72058594 493.0509375 686.44117188 492.046875 687.18359375 C484.74430748 692.78023361 478.95843338 699.12469987 476 708 C475.15663567 717.97343642 475.15663567 717.97343642 478.34765625 727.203125 C481.80433425 730.96216017 486.26650079 733.25819772 490.68457031 735.70800781 C493.34485085 737.19242416 495.98122877 738.7149981 498.6171875 740.2421875 C502.99562654 742.77851601 507.37872791 745.30645401 511.765625 747.828125 C518.80343848 751.87773186 525.82093992 755.96174262 532.82861328 760.06326294 C534.098065 760.8060414 535.36791477 761.54814004 536.63818359 762.28952026 C538.42134413 763.33047508 540.20305259 764.37387231 541.984375 765.41796875 C543.00241211 766.01375732 544.02044922 766.6095459 545.06933594 767.22338867 C547.16818777 768.49574328 549.22520674 769.83812017 551.25097656 771.22387695 C553.73450008 773.18089298 553.73450008 773.18089298 556 773 C556.07476563 772.11699219 556.14953125 771.23398437 556.2265625 770.32421875 C557.70234891 756.85405059 562.54910705 747.66104481 573 739 C582.54422285 731.69136088 592.99753202 726.26557126 603.68017578 720.81298828 C610.37213112 717.39327973 616.89858208 713.82144912 623.33422852 709.94482422 C629.90264822 706.00612526 636.60470794 702.31968607 643.3125 698.625 C654.70348933 692.34133376 665.91191454 685.8028722 677 679 C676.41448364 678.32795532 676.41448364 678.32795532 675.81713867 677.64233398 C667.27955436 667.77530894 660.22761757 659.07488987 660.73046875 645.53515625 C661.427634 638.97776138 665.07815198 635.50541621 669.87890625 631.40625 C676.30424368 626.45254805 683.08050203 621.98816554 689.81542969 617.46972656 C692.58210546 615.60837339 695.32662435 613.71883901 698.0625 611.8125 C698.79597656 611.30332031 699.52945313 610.79414062 700.28515625 610.26953125 C702.12742562 608.97096156 702.12742562 608.97096156 704 607 C700.5692834 604.82244608 697.12937215 602.6598702 693.6875 600.5 C692.22280273 599.56994141 692.22280273 599.56994141 690.72851562 598.62109375 C689.79072266 598.03457031 688.85292969 597.44804688 687.88671875 596.84375 C687.02264404 596.29912109 686.15856934 595.75449219 685.26831055 595.19335938 C680.49838978 592.68390155 677.3803664 595.25333252 673.1875 597.6875 Z M403 597 C398.60654161 598.63565983 394.66009572 601.09716547 391 604 C387.4566074 606.17393584 383.85297387 608.23936027 380.25 610.3125 C371.45992085 615.46790838 364.43485484 620.02078 358 628 C357.2884375 628.7734375 357.2884375 628.7734375 356.5625 629.5625 C350.62707451 636.0632041 348.69252132 644.30274599 349 653 C349.66 653.66 350.32 654.32 351 655 C351.08636719 654.17757812 351.17273438 653.35515625 351.26171875 652.5078125 C352.77028629 640.5223126 356.71028478 631.00577084 366 623 C372.44263872 618.33124839 379.22859911 614.16953478 386 610 C387.3268763 609.1771694 388.65370493 608.35426194 389.98046875 607.53125 C392.07309902 606.24051372 394.16990539 604.95648582 396.2734375 603.68359375 C399.23280902 601.85624543 402.11611031 599.94386075 405 598 C404.34 597.67 403.68 597.34 403 597 Z M707.9375 620.1875 C707.24084229 620.62731201 706.54418457 621.06712402 705.82641602 621.52026367 C697.99046735 626.53711314 690.48490499 632.0113579 683.00341797 637.53759766 C681.03356231 638.97550107 679.03717877 640.36911821 677.03515625 641.76171875 C673.77936691 644.16270626 673.23173104 644.67582264 672.5625 648.5 C673.63007997 657.04063977 680.01939415 663.48018604 685.75390625 669.48046875 C687.87081599 671.26104442 687.87081599 671.26104442 690.31152344 670.77319336 C693.29045906 669.91646533 695.58983367 668.71928816 698.26171875 667.1484375 C699.28628174 666.55135986 700.31084473 665.95428223 701.36645508 665.33911133 C703.01037231 664.36687622 703.01037231 664.36687622 704.6875 663.375 C706.42190744 662.3601544 708.15632309 661.34532254 709.89122009 660.33131409 C711.09185851 659.62900479 712.29193501 658.92573406 713.49147034 658.22154236 C717.75151533 655.72168959 722.03006422 653.25619996 726.3203125 650.80859375 C727.50434404 650.13172722 728.68834513 649.4548074 729.87231445 648.77783203 C732.12461481 647.49112294 734.37830758 646.20684738 736.63354492 644.92529297 C737.65810791 644.3376416 738.6826709 643.74999023 739.73828125 643.14453125 C740.63587158 642.63253174 741.53346191 642.12053223 742.45825195 641.59301758 C745.14734649 639.90765192 747.56051152 638.02636921 750 636 C746.54309211 633.78942941 743.08420953 631.5819668 739.625 629.375 C738.65949219 628.75753906 737.69398438 628.14007812 736.69921875 627.50390625 C733.80576482 625.65908663 730.90532445 623.82606301 728 622 C726.58799316 621.10909668 726.58799316 621.10909668 725.14746094 620.20019531 C724.2609082 619.65202148 723.37435547 619.10384766 722.4609375 618.5390625 C721.67251465 618.04873535 720.8840918 617.5584082 720.07177734 617.05322266 C715.23695636 614.59536056 711.99952222 617.59402111 707.9375 620.1875 Z M755.625 647.8125 C747.28497868 652.85976933 738.85390572 657.74179555 730.40869141 662.61035156 C727.34449647 664.37818022 724.2836327 666.15172242 721.22290039 667.92553711 C715.10837119 671.46910307 708.9904665 675.0067282 702.8671875 678.53515625 C700.68229056 679.79426892 698.49739475 681.05338354 696.3125 682.3125 C695.2090625 682.94824951 694.105625 683.58399902 692.96875 684.23901367 C686.59879701 687.91259452 680.2427622 691.60866995 673.89892578 695.32714844 C662.72773755 701.87329897 651.47478282 708.25690671 640.1640625 714.55859375 C633.24837581 718.41236505 626.36527391 722.32285946 619.48144531 726.2331543 C614.68666776 728.94756346 609.87447679 731.62166937 605.0234375 734.234375 C604.04463623 734.76208496 603.06583496 735.28979492 602.05737305 735.83349609 C600.21818694 736.82138389 598.37614121 737.80397716 596.53051758 738.77978516 C588.47031203 743.1058275 580.15087136 747.69960618 574.5 755.0625 C573.8709375 755.85785156 573.241875 756.65320313 572.59375 757.47265625 C569.42996289 762.48974022 568.49323277 767.12150014 569 773 C570.1861046 777.40321024 571.43494042 781.00711048 575 784 C587.01821438 788.00607146 600.27581566 784.26141361 611.20019531 778.92529297 C624.84039571 771.95511016 637.85547631 763.75735234 650.95410156 755.8359375 C655.53757888 753.07321312 660.14106684 750.34499118 664.75 747.625 C665.62406494 747.1091333 666.49812988 746.5932666 667.39868164 746.06176758 C677.0743978 740.35837934 686.76623638 734.68239004 696.45762634 729.00569153 C702.24661411 725.61477934 708.0321688 722.21815036 713.8125 718.8125 C729.28437893 709.70673509 744.79008659 700.66104026 760.375 691.75 C760.9690564 691.41032196 761.56311279 691.07064392 762.1751709 690.72067261 C769.44021267 686.5697703 776.73161391 682.47102928 784.0625 678.4375 C797.29465959 672.34183878 797.29465959 672.34183878 806.6875 662.3125 C807.15388806 658.86122833 807.05802687 655.48161204 807 652 C803.76879704 652.65406544 801.28005757 653.81984478 798.421875 655.44921875 C797.52106201 655.9601709 796.62024902 656.47112305 795.69213867 656.99755859 C794.72123291 657.55523926 793.75032715 658.11291992 792.75 658.6875 C791.73075439 659.26838379 790.71150879 659.84926758 789.66137695 660.44775391 C780.45646999 665.70669394 771.3020241 671.05200896 762.15234375 676.40625 C746.19659032 685.73775528 730.15392954 694.91869936 714.09783936 704.07608032 C705.01204122 709.25985125 695.96178959 714.50194021 686.93261719 719.78369141 C674.22614547 727.21438893 661.46421589 734.54894865 648.70898438 741.89550781 C646.51887985 743.15712774 644.32901945 744.41917155 642.1394043 745.68164062 C639.97790423 746.92703712 637.81531996 748.17055393 635.65161133 749.41210938 C630.15820463 752.57053622 624.69790614 755.77259876 619.27734375 759.0546875 C618.19146973 759.70622803 617.1055957 760.35776855 615.98681641 761.02905273 C613.92538491 762.26841668 611.87116733 763.519889 609.82568359 764.78540039 C600.89264548 770.13170013 600.89264548 770.13170013 595 769 C592.5705484 765.3558226 592.83820425 763.28758728 593 759 C593.71679932 758.7313916 594.43359863 758.4627832 595.17211914 758.18603516 C598.02643799 756.9889117 600.58133697 755.59542453 603.24609375 754.0234375 C604.24060547 753.43949219 605.23511719 752.85554687 606.25976562 752.25390625 C607.83274414 751.32384766 607.83274414 751.32384766 609.4375 750.375 C611.62342796 749.09068625 613.80962397 747.80682861 615.99609375 746.5234375 C617.56593018 745.60062988 617.56593018 745.60062988 619.16748047 744.65917969 C622.43124477 742.7473936 625.71041041 740.86695419 629 739 C635.0700848 735.54809636 641.09780506 732.02618342 647.125 728.5 C656.15781668 723.21800756 665.22297979 717.99600394 674.3125 712.8125 C687.14133312 705.49553831 699.94220926 698.13357058 712.6875 690.671875 C722.66785845 684.83161323 732.66676958 679.03616461 742.75 673.375 C760.13602235 663.61988933 760.13602235 663.61988933 777 653 C774.68923915 651.49726004 772.37652089 649.99770448 770.0625 648.5 C769.40314453 648.07074219 768.74378906 647.64148438 768.06445312 647.19921875 C762.05327902 643.31507548 761.45243818 644.25589627 755.625 647.8125 Z M351 655 C349.95230482 658.27479579 349.86184826 659.67083459 351.21484375 662.89453125 C351.78332031 663.85746094 352.35179687 664.82039062 352.9375 665.8125 C353.50339844 666.78832031 354.06929688 667.76414062 354.65234375 668.76953125 C355.09707031 669.50558594 355.54179687 670.24164062 356 671 C356.66 671 357.32 671 358 671 C358.20625 671.7425 358.4125 672.485 358.625 673.25 C361.32664402 678.65328805 367.8009225 681.10679023 372.9375 684 C374.11328125 684.66666667 375.2890625 685.33333333 376.46484375 686 C377.04218262 686.32484375 377.61952148 686.6496875 378.21435547 686.984375 C379.45913921 687.69237341 380.69731026 688.41207102 381.93017578 689.140625 C385.23932625 691.27420467 385.23932625 691.27420467 389 692 C389.33 692.66 389.66 693.32 390 694 C390.99 694 391.98 694 393 694 C393 694.66 393 695.32 393 696 C393.66 696 394.32 696 395 696 C395 696.66 395 697.32 395 698 C396.051875 698.433125 397.10375 698.86625 398.1875 699.3125 C401.29965024 700.63547885 404.10003031 702.26001818 407 704 C407.66 704 408.32 704 409 704 C409.33 704.66 409.66 705.32 410 706 C410.99 706 411.98 706 413 706 C413 706.66 413 707.32 413 708 C413.969375 708.28875 414.93875 708.5775 415.9375 708.875 C419 710 419 710 420 712 C422.96364941 713.61067903 425.7987287 714.93290957 429 716 C429 716.66 429 717.32 429 718 C431.31 718.33 433.62 718.66 436 719 C433.68372942 716.4634001 431.27188058 714.84662374 428.30078125 713.13671875 C427.35082275 712.58661133 426.40086426 712.03650391 425.42211914 711.46972656 C424.39594482 710.8815918 423.36977051 710.29345703 422.3125 709.6875 C420.13014063 708.42589835 417.94785094 707.16417617 415.765625 705.90234375 C414.64478516 705.2563623 413.52394531 704.61038086 412.36914062 703.94482422 C406.08186622 700.31551785 399.81443604 696.65212052 393.5480957 692.98681641 C389.0421159 690.35220712 384.53215106 687.7270708 379.99609375 685.14453125 C366.32650658 677.32714119 357.20659843 670.3457638 352 655 C351.67 655 351.34 655 351 655 Z M819 665 C817.39092892 667.37612865 817.39092892 667.37612865 816 670 C816.33 670.66 816.66 671.32 817 672 C818.62831762 670.19038423 818.62831762 670.19038423 820 668 C819.67 667.01 819.34 666.02 819 665 Z M815 672 C812.69 674.31 810.38 676.62 808 679 C808.99 679.33 809.98 679.66 811 680 C812.65 678.35 814.3 676.7 816 675 C815.67 674.01 815.34 673.02 815 672 Z M800 684 C802.99931165 685.38891928 802.99931165 685.38891928 805.6875 683.6875 C806.450625 683.130625 807.21375 682.57375 808 682 C808 681.34 808 680.68 808 680 C804.71841516 680 802.62118892 682.17656423 800 684 Z M792.375 688 C791.37210938 688.556875 790.36921875 689.11375 789.3359375 689.6875 C788.56507813 690.120625 787.79421875 690.55375 787 691 C789.52481387 691.93616694 790.59474972 692.17818983 793.10546875 691.07421875 C793.79253906 690.61660156 794.47960937 690.15898438 795.1875 689.6875 C795.88230469 689.23761719 796.57710937 688.78773438 797.29296875 688.32421875 C799.13343437 687.09363095 799.13343437 687.09363095 800 685 C796.9728902 685 794.99583932 686.53720596 792.375 688 Z M777.93359375 695.7109375 C776.89928223 696.29125732 775.8649707 696.87157715 774.79931641 697.46948242 C773.13521729 698.41271362 773.13521729 698.41271362 771.4375 699.375 C770.30231934 700.01477783 769.16713867 700.65455566 767.99755859 701.3137207 C760.33171071 705.64618991 752.7149822 710.05414486 745.14453125 714.55078125 C739.60171923 717.83975931 734.00969046 721.04445046 728.41650391 724.24682617 C724.16855216 726.69216009 720.04259634 729.22756551 716 732 C716.66 732.33 717.32 732.66 718 733 C720.03574553 732.07493776 722.02851158 731.05509876 724 730 C725.32430514 729.34901948 726.6512643 728.70341753 727.98046875 728.0625 C729.38285294 727.37508249 730.7851961 726.68758127 732.1875 726 C732.89841797 725.65710938 733.60933594 725.31421875 734.34179688 724.9609375 C735.02693359 724.62320313 735.71207031 724.28546875 736.41796875 723.9375 C737.03438232 723.63714844 737.6507959 723.33679688 738.28588867 723.02734375 C740.1678812 721.89938127 741.46494335 720.55711579 743 719 C744.99065541 717.98152514 746.99248185 716.98482022 749 716 C750.32019111 715.17890553 751.63235369 714.34480401 752.9375 713.5 C755.50429752 711.85764296 757.98454297 710.50856928 760.8125 709.375 C763.78929342 708.09089303 764.85226802 707.24111163 767 705 C768.97620986 703.95377125 770.9737129 702.94560065 773 702 C773 701.34 773 700.68 773 700 C774.051875 699.773125 775.10375 699.54625 776.1875 699.3125 C780.1597906 698.20639469 782.29599637 696.11370115 785 693 C782.11988795 693 780.43912441 694.30025874 777.93359375 695.7109375 Z M438 720 C438.33 720.99 438.66 721.98 439 723 C441.09719872 724.02281518 441.09719872 724.02281518 443.5625 724.6875 C444.38878906 724.93886719 445.21507812 725.19023438 446.06640625 725.44921875 C447.02353516 725.72185547 447.02353516 725.72185547 448 726 C444.98112756 722.51668565 442.43090471 721.20842856 438 720 Z M448 726 C448 726.66 448 727.32 448 728 C449.32 727.67 450.64 727.34 452 727 C450.68 726.67 449.36 726.34 448 726 Z M452 728 C452 728.99 452 729.98 452 731 C452.99 731.37125 453.98 731.7425 455 732.125 C458.88637848 733.75680597 461.88838048 736.10004964 465.10546875 738.79296875 C467.18785516 740.35821699 467.18785516 740.35821699 471 740 C471.33 740.66 471.66 741.32 472 742 C472.66 741.34 473.32 740.68 474 740 C471.27428673 738.36915458 468.54384748 736.74638861 465.8125 735.125 C464.65911133 734.43470703 464.65911133 734.43470703 463.48242188 733.73046875 C459.73693007 731.5121088 456.12984076 729.44006471 452 728 Z M708.875 736 C707.50988281 736.8353125 707.50988281 736.8353125 706.1171875 737.6875 C705.41851563 738.120625 704.71984375 738.55375 704 739 C704.66 739.66 705.32 740.32 706 741 C706 740.34 706 739.68 706 739 C707.27875 738.7525 708.5575 738.505 709.875 738.25 C713.26747318 737.48009414 713.26747318 737.48009414 715.5 734.875 C715.665 734.25625 715.83 733.6375 716 733 C713.05613377 733 711.36113502 734.47007076 708.875 736 Z M702 740 C699.51381299 741.22286718 699.51381299 741.22286718 696.875 742.9375 C695.96492187 743.50339844 695.05484375 744.06929687 694.1171875 744.65234375 C693.41851563 745.09707031 692.71984375 745.54179688 692 746 C692.99 746.495 692.99 746.495 694 747 C696.35981813 746.06421005 698.69631264 745.06652192 701 744 C701 743.34 701 742.68 701 742 C701.99 741.67 702.98 741.34 704 741 C703.34 740.67 702.68 740.34 702 740 Z M474 741 C475.70625501 743.78388975 476.47626739 744.85384206 479.6875 745.75 C480.450625 745.8325 481.21375 745.915 482 746 C479.47211993 743.20127563 477.79588866 741.54226981 474 741 Z M486 748 C485.67 748.66 485.34 749.32 485 750 C485.94875 750.45375 486.8975 750.9075 487.875 751.375 C491 753 491 753 493 755 C494.32 755 495.64 755 497 755 C497.33 755.99 497.66 756.98 498 758 C501.8245861 760.50847876 501.8245861 760.50847876 506.19921875 760.578125 C506.79347656 760.38734375 507.38773437 760.1965625 508 760 C505.27428673 758.36915458 502.54384748 756.74638861 499.8125 755.125 C498.65911133 754.43470703 498.65911133 754.43470703 497.48242188 753.73046875 C493.73693007 751.5121088 490.12984076 749.44006471 486 748 Z M679.4375 752.875 C678.64408203 753.33519531 677.85066406 753.79539062 677.03320312 754.26953125 C675.90108398 754.93662109 675.90108398 754.93662109 674.74609375 755.6171875 C673.70473267 756.22989502 673.70473267 756.22989502 672.64233398 756.85498047 C670.84351366 757.91468726 670.84351366 757.91468726 670 760 C675.11275657 758.65453774 679.19016508 756.20550462 683.6328125 753.4375 C685.71580869 752.17257822 687.80392378 751.05249736 690 750 C690 749.34 690 748.68 690 748 C686.12706657 748 682.69759569 750.94289431 679.4375 752.875 Z M663.875 762.5 C663.15054688 762.9640625 662.42609375 763.428125 661.6796875 763.90625 C661.12539063 764.2671875 660.57109375 764.628125 660 765 C660.66 765.66 661.32 766.32 662 767 C662 766.34 662 765.68 662 765 C663.423125 764.87625 663.423125 764.87625 664.875 764.75 C668.10461791 764.34925077 668.10461791 764.34925077 669.375 761.9375 C669.58125 761.298125 669.7875 760.65875 670 760 C667.32449708 760 666.10955359 761.05835252 663.875 762.5 Z M508 761 C510.62559946 764.69528813 512.5369351 766.85562438 517 768 C517.99 767.67 518.98 767.34 520 767 C518.37829621 765.99466333 516.75252763 764.99588093 515.125 764 C514.22007812 763.443125 513.31515625 762.88625 512.3828125 762.3125 C510.16142533 760.83917671 510.16142533 760.83917671 508 761 Z M652.875 769 C651.50988281 769.8353125 651.50988281 769.8353125 650.1171875 770.6875 C649.41851563 771.120625 648.71984375 771.55375 648 772 C651.15452016 773.44156769 651.15452016 773.44156769 654.5625 771.25 C657.33408171 769.65261528 658.13118696 768.80321956 660 766 C657.05613377 766 655.36113502 767.47007076 652.875 769 Z M520 768 C520.66 769.32 521.32 770.64 522 772 C522.66 772 523.32 772 524 772 C524.33 772.66 524.66 773.32 525 774 C526.65 774 528.3 774 530 774 C526.98112756 770.51668565 524.43090471 769.20842856 520 768 Z M646 773 C646.66 773.66 647.32 774.32 648 775 C648 774.34 648 773.68 648 773 C647.34 773 646.68 773 646 773 Z M530 774 C529.67 774.66 529.34 775.32 529 776 C530.32 776 531.64 776 533 776 C533 776.66 533 777.32 533 778 C535.97 778.99 538.94 779.98 542 781 C538.85595666 777.85595666 534.70527539 774 530 774 Z M644 774 C643.67 774.66 643.34 775.32 643 776 C643.99 775.67 644.98 775.34 646 775 C645.34 774.67 644.68 774.34 644 774 Z M639.375 777.5 C638.92125 777.995 638.4675 778.49 638 779 C639.65 778.67 641.3 778.34 643 778 C643 777.34 643 776.68 643 776 C640.87635519 775.77390663 640.87635519 775.77390663 639.375 777.5 Z M629.375 783 C628.76398437 783.3815625 628.15296875 783.763125 627.5234375 784.15625 C626.01313263 785.10019054 624.50623872 786.04958458 623 787 C623.99 787.495 623.99 787.495 625 788 C629.95371163 785.90567018 634.49391962 783.11583349 638 779 C634.65996383 779 632.12674749 781.25957851 629.375 783 Z M542 781 C542.33 781.99 542.66 782.98 543 784 C544.32303717 784.3721042 545.65737935 784.70630173 547 785 C547.33 785.66 547.66 786.32 548 787 C549.54468629 788.07841987 551.13605333 789.09078951 552.75 790.0625 C553.61109375 790.58972656 554.4721875 791.11695313 555.359375 791.66015625 C557.95639974 792.97787738 560.13282574 793.58230015 563 794 C563.33 794.99 563.66 795.98 564 797 C567.11981947 797.71251772 570.24629702 798.3901617 573.375 799.0625 C574.24511719 799.26166016 575.11523438 799.46082031 576.01171875 799.66601562 C584.82300694 801.52617647 592.42154444 800.56706891 601.125 798.4375 C602.24132812 798.16808594 603.35765625 797.89867187 604.5078125 797.62109375 C605.33023438 797.41613281 606.15265625 797.21117187 607 797 C607 796.34 607 795.68 607 795 C606.28457031 795.13277344 605.56914063 795.26554688 604.83203125 795.40234375 C601.5606981 795.98212724 598.28465203 796.50120582 595 797 C593.96746094 797.16371094 592.93492187 797.32742188 591.87109375 797.49609375 C573.73304852 799.69808422 560.71782106 791.57531743 545.99267578 782.12988281 C544.09182274 780.83558539 544.09182274 780.83558539 542 781 Z M621 788 C618.64018187 788.93578995 616.30368736 789.93347808 614 791 C614 791.66 614 792.32 614 793 C615.98 792.67 617.96 792.34 620 792 C620 791.34 620 790.68 620 790 C620.99 789.67 621.98 789.34 623 789 C622.34 788.67 621.68 788.34 621 788 Z M612 792 C611.34 792.66 610.68 793.32 610 794 C610.99 794 611.98 794 613 794 C612.67 793.34 612.34 792.68 612 792 Z M580 818 C578.0406396 818.08510205 576.07837206 818.10717656 574.1171875 818.09765625 C572.95058594 818.09443359 571.78398438 818.09121094 570.58203125 818.08789062 C569.35871094 818.07951172 568.13539063 818.07113281 566.875 818.0625 C565.64394531 818.05798828 564.41289063 818.05347656 563.14453125 818.04882812 C560.09630608 818.0370133 557.04817686 818.02054028 554 818 C554 818.66 554 819.32 554 820 C553.34 820 552.68 820 552 820 C551.92556571 825.71082747 551.87126366 831.4213694 551.83520508 837.13256836 C551.82016509 839.07337364 551.79972786 841.0141452 551.77368164 842.95483398 C551.73708705 845.75252632 551.72022552 848.54976733 551.70703125 851.34765625 C551.69154739 852.2083522 551.67606354 853.06904816 551.66011047 853.95582581 C551.65839997 860.14827849 552.56054206 864.97507216 556.5625 869.9375 C557.97013476 871.19813035 557.97013476 871.19813035 560 871 C560 871.66 560 872.32 560 873 C566.84347892 875.73739157 572.86170305 875.42765939 580 874 C580.66 875.98 581.32 877.96 582 880 C582.99 880 583.98 880 585 880 C585.66 878.68 586.32 877.36 587 876 C589.31 876 591.62 876 594 876 C595.125 879.75 595.125 879.75 594 882 C593.73787253 884.73486325 593.53255364 887.44653014 593.375 890.1875 C593.3234375 890.93064453 593.271875 891.67378906 593.21875 892.43945312 C592.5991504 900.8793256 592.5991504 900.8793256 595.8125 908.375 C597.96181032 909.97163052 599.37478776 910.62496968 602 911 C601.29815778 907.91816752 601.29815778 907.91816752 599 906.5625 C596.56417249 904.65950976 596.50700906 903.99135348 596 901 C595.85769859 898.85726916 595.77978836 896.70974423 595.75 894.5625 C595.72421875 893.45003906 595.6984375 892.33757812 595.671875 891.19140625 C596.06357689 887.38163902 597.27291027 884.72708973 600 882 C606.35317339 881.52939456 606.35317339 881.52939456 608.69726562 883.23486328 C611.19780445 886.62296217 610.51155384 890.81382382 610.5 894.875 C610.52835938 895.77347656 610.55671875 896.67195312 610.5859375 897.59765625 C610.60508625 904.0795074 610.60508625 904.0795074 608.8515625 906.74707031 C607.46875 908.1328125 607.46875 908.1328125 605 910 C608.69418201 911.231394 611.2056261 910.64432764 615 910 C614.8598002 906.64557336 614.71181572 903.29153225 614.5625 899.9375 C614.52318359 898.99455078 614.48386719 898.05160156 614.44335938 897.08007812 C614.21274604 891.98884522 613.8300873 887.02935244 613 882 C617.455 881.505 617.455 881.505 622 881 C621.67 890.57 621.34 900.14 621 910 C621.66 910.33 622.32 910.66 623 911 C623.00257813 910.28714844 623.00515625 909.57429687 623.0078125 908.83984375 C623.26841395 902.38561459 624.12143633 898.76740397 628.72265625 894.14453125 C629.14417969 893.76683594 629.56570313 893.38914062 630 893 C629.67 892.34 629.34 891.68 629 891 C627.35 891 625.7 891 624 891 C624.75 884.25 624.75 884.25 627 882 C630.4375 881.625 630.4375 881.625 634 882 C636.84571832 884.29493413 636.97844278 885.80239215 637.375 889.4375 C636.83539254 894.56377089 634.7685787 897.59033356 631 901 C633.31 901 635.62 901 638 901 C638 903.97 638 906.94 638 910 C641.13349732 911.04449911 641.98968256 910.93423645 645 910 C645 910.66 645 911.32 645 912 C645.99 912 646.98 912 648 912 C648 911.34 648 910.68 648 910 C648.928125 910.226875 649.85625 910.45375 650.8125 910.6875 C653.94724406 911.37258338 653.94724406 911.37258338 655.6875 909.625 C656.120625 909.08875 656.55375 908.5525 657 908 C657.99 907.67 658.98 907.34 660 907 C660.66 908.32 661.32 909.64 662 911 C662.33 911 662.66 911 663 911 C663 908.69 663 906.38 663 904 C660.69 904 658.38 904 656 904 C656.89941932 896.85116711 659.08268299 891.4396918 662.7578125 885.25 C664.16110613 883.13653887 664.16110613 883.13653887 664 881 C666.31 881 668.62 881 671 881 C671 886.28 671 891.56 671 897 C672.485 897.495 672.485 897.495 674 898 C673.95359375 897.18015625 673.9071875 896.3603125 673.859375 895.515625 C673.82328125 894.43796875 673.7871875 893.3603125 673.75 892.25 C673.70359375 891.18265625 673.6571875 890.1153125 673.609375 889.015625 C674 886 674 886 675.71875 883.625 C678.35815481 881.74487603 679.5586992 881.56227642 682.75 881.75 C683.54921875 881.78609375 684.3484375 881.8221875 685.171875 881.859375 C685.77515625 881.90578125 686.3784375 881.9521875 687 882 C688.36723681 886.10171043 688.30326214 889.95224995 688.375 894.25 C688.43107422 895.50103516 688.43107422 895.50103516 688.48828125 896.77734375 C688.57815054 903.13809211 687.13565227 906.17289798 683 911 C686.3 911.33 689.6 911.66 693 912 C693 911.34 693 910.68 693 910 C692.34 910 691.68 910 691 910 C691.02745634 903.1770992 691.88325502 899.12157017 696.72265625 894.1796875 C697.14417969 893.79039062 697.56570313 893.40109375 698 893 C697.67 892.34 697.34 891.68 697 891 C695.02 891 693.04 891 691 891 C692.75 884.25 692.75 884.25 695 882 C698.51843231 881.54107405 700.34860502 881.58859264 703.375 883.5 C705.2434963 886.3746097 705.62168499 888.61323575 705.46875 892.03515625 C704.68920089 895.30276628 702.50834806 896.91990649 700 899 C699.67 899.66 699.34 900.32 699 901 C701.31 901 703.62 901 706 901 C705.67 903.64 705.34 906.28 705 909 C703.01432292 908.96744792 701.02864583 908.93489583 699.04296875 908.90234375 C696.79694539 908.91736783 696.79694539 908.91736783 694 910 C694 910.66 694 911.32 694 912 C695.41623216 912.05447047 696.83308191 912.09300508 698.25 912.125 C699.43335938 912.15980469 699.43335938 912.15980469 700.640625 912.1953125 C703.33235234 911.97248739 704.84264694 911.64485968 707 910 C707.48045852 907.57726267 707.48045852 907.57726267 707.375 904.8125 C707.63701237 899.43062436 708.96446761 896.92040549 712.72265625 893.14453125 C713.14417969 892.76683594 713.56570313 892.38914062 714 892 C711.69 891.67 709.38 891.34 707 891 C708.75 884.25 708.75 884.25 711 882 C714.55600891 881.53617275 716.34990088 881.57230321 719.375 883.5625 C721.59464544 886.89196816 721.42107788 889.06993977 721 893 C719.81169744 896.46588248 717.65391468 898.52301296 715 901 C717.31 901 719.62 901 722 901 C721.67 904.3 721.34 907.6 721 911 C721.99 910.67 722.98 910.34 724 910 C723.89558594 908.91332031 723.89558594 908.91332031 723.7890625 907.8046875 C723.35211935 900.00213119 723.35211935 900.00213119 725.3359375 896.93359375 C727 895.3125 727 895.3125 730 893 C729.67 892.34 729.34 891.68 729 891 C727.02 891 725.04 891 723 891 C724.75 884.25 724.75 884.25 727 882 C731.01167336 881.37596192 732.59029568 881.72686379 736 884 C738 887 738 887 737.625 890.9375 C736.2600752 895.11956609 734.00520551 897.83662578 731 901 C733.31 901 735.62 901 738 901 C737.25 908.75 737.25 908.75 735 911 C737.54702616 912.27351308 738.4282945 911.80191925 741.125 911.0625 C741.84945312 910.86785156 742.57390625 910.67320312 743.3203125 910.47265625 C744.15175781 910.23869141 744.15175781 910.23869141 745 910 C745 909.34 745 908.68 745 908 C744.38125 907.5875 743.7625 907.175 743.125 906.75 C740.37883708 904.48845406 739.90113361 902.37925104 739 899 C742.375 898.875 742.375 898.875 746 899 C746.66 899.66 747.32 900.32 748 901 C747.67 899.68 747.34 898.36 747 897 C746.34 897 745.68 897 745 897 C745 894.69 745 892.38 745 890 C743.35 890 741.7 890 740 890 C740.59861742 887.64828869 741.26924352 885.3140622 742 883 C745.04983996 881.47508002 747.6423369 881.76437452 751 882 C752.9375 883.0625 752.9375 883.0625 754 885 C754.38991688 889.36706908 754.46324069 891.30513897 752 895 C752.66 895.66 753.32 896.32 754 897 C754.52941176 905.20588235 754.52941176 905.20588235 752 909 C754.52475462 910.26237731 756.31200466 910.09856404 759.125 910.0625 C760.03507813 910.05347656 760.94515625 910.04445313 761.8828125 910.03515625 C762.58148437 910.02355469 763.28015625 910.01195312 764 910 C764 910.66 764 911.32 764 912 C768.96911366 910.87302957 768.96911366 910.87302957 773 908 C774.32225152 903.95181955 774.18387775 899.8413045 774.1875 895.625 C774.19974609 894.8825 774.21199219 894.14 774.22460938 893.375 C774.23651507 888.88258605 773.84558693 885.18333038 772 881 C771.34 880.67 770.68 880.34 770 880 C770.24230347 878.51113281 770.24230347 878.51113281 770.48950195 876.9921875 C771.05175894 873.03822324 771.16149388 869.11422591 771.16796875 865.125 C771.17129715 864.39684082 771.17462555 863.66868164 771.17805481 862.91845703 C771.18308537 861.38900376 771.18546434 859.85953966 771.18530273 858.33007812 C771.18749404 856.00632533 771.20570378 853.68304439 771.22460938 851.359375 C771.22754328 849.86458494 771.2295281 848.36979265 771.23046875 846.875 C771.24124702 845.84656982 771.24124702 845.84656982 771.25224304 844.79736328 C771.23081506 840.21745624 770.75911342 836.24542851 769 832 C765.54720436 830.19309198 762.66048168 829.75086732 758.79833984 829.75708008 C757.78734222 829.75400345 756.7763446 829.75092682 755.73471069 829.74775696 C754.65436554 829.75494247 753.57402039 829.76212799 752.4609375 829.76953125 C751.34312897 829.76998947 750.22532043 829.77044769 749.07363892 829.7709198 C746.71509741 829.77393642 744.3565578 829.78180502 741.99804688 829.79418945 C738.38143894 829.81246746 734.76508685 829.81469889 731.1484375 829.81445312 C728.85676861 829.81936778 726.56510146 829.82519586 724.2734375 829.83203125 C722.64684708 829.83370049 722.64684708 829.83370049 720.98739624 829.83540344 C719.98270294 829.84178329 718.97800964 829.84816315 717.94287109 829.85473633 C717.05860443 829.85854813 716.17433777 829.86235992 715.26327515 829.86628723 C712.83235032 829.91159027 712.83235032 829.91159027 710 831 C708 830.66666667 706 830.33333333 704 830 C699.16089276 829.76956632 694.74229746 829.94986032 690 831 C689.95101562 830.24074219 689.90203125 829.48148438 689.8515625 828.69921875 C689.73941406 827.20841797 689.73941406 827.20841797 689.625 825.6875 C689.52058594 824.20830078 689.52058594 824.20830078 689.4140625 822.69921875 C689.16134528 819.78471567 689.16134528 819.78471567 687 817 C684.68853869 816.67654698 684.68853869 816.67654698 682.01953125 816.92578125 C681.01986328 816.98056641 680.02019531 817.03535156 678.99023438 817.09179688 C677.41725586 817.20104492 677.41725586 817.20104492 675.8125 817.3125 C673.75658179 817.43479946 671.70059312 817.55592114 669.64453125 817.67578125 C668.67338379 817.73588379 667.70223633 817.79598633 666.70166016 817.85791016 C663.45876299 818.02846557 660.24623335 818.05050717 657 818 C656.89165625 822.44209357 657.29826347 826.61414671 658 831 C657.34 831.33 656.68 831.66 656 832 C656.99 834.97 656.99 834.97 658 838 C650.83834298 839.1936095 644.18957421 839.43791484 637 838 C637.32226562 837.47535156 637.64453125 836.95070313 637.9765625 836.41015625 C639.287949 833.3218911 639.33690594 830.78596796 639.375 827.4375 C639.40335938 826.30183594 639.43171875 825.16617188 639.4609375 823.99609375 C639.29858139 820.96482678 639.29858139 820.96482678 637.31494141 819.32885742 C634.4784956 817.70063822 632.75468336 817.66727291 629.5 817.7421875 C628.448125 817.75636719 627.39625 817.77054688 626.3125 817.78515625 C624.6728125 817.82962891 624.6728125 817.82962891 623 817.875 C620.83341656 817.91843387 618.66674381 817.9576683 616.5 817.9921875 C615.5409375 818.01651855 614.581875 818.04084961 613.59375 818.06591797 C611 818 611 818 608.8203125 817.41064453 C606.78620774 816.74085057 606.78620774 816.74085057 604.375 818.4375 C603.59125 818.953125 602.8075 819.46875 602 820 C601.34 820 600.68 820 600 820 C600 819.34 600 818.68 600 818 C599.20335937 818.01160156 598.40671875 818.02320313 597.5859375 818.03515625 C592.57036839 818.07786791 584.2491834 815.8754083 580 818 Z M393 819 C390.11629667 819.07194869 387.25760336 819.09291708 384.375 819.0625 C383.57320313 819.05798828 382.77140625 819.05347656 381.9453125 819.04882812 C379.96350994 819.03703168 377.98174567 819.01909605 376 819 C374.78208746 821.43582507 374.8666814 823.01522392 374.85473633 825.73754883 C374.84835648 826.72229691 374.84197662 827.70704498 374.83540344 828.72163391 C374.83429062 829.78931503 374.8331778 830.85699615 374.83203125 831.95703125 C374.82870285 833.05214523 374.82537445 834.14725922 374.82194519 835.27555847 C374.81687481 837.59654316 374.8145369 839.91753517 374.81469727 842.23852539 C374.81251543 845.78739491 374.79437351 849.33595134 374.77539062 852.88476562 C374.7724558 855.13801977 374.7704716 857.39127539 374.76953125 859.64453125 C374.76234573 860.70613968 374.75516022 861.76774811 374.74775696 862.86152649 C374.75083359 863.85573105 374.75391022 864.84993561 374.75708008 865.87426758 C374.75565506 866.74537674 374.75423004 867.6164859 374.75276184 868.51399231 C375.03002461 871.30190085 375.85111736 873.45724204 377 876 C378.13888672 875.98259766 378.13888672 875.98259766 379.30078125 875.96484375 C380.79158203 875.95130859 380.79158203 875.95130859 382.3125 875.9375 C383.79169922 875.92009766 383.79169922 875.92009766 385.30078125 875.90234375 C388 876 388 876 391 877 C393.16598657 877.00431794 395.33234897 876.94236532 397.49609375 876.84375 C398.77677734 876.79089844 400.05746094 876.73804688 401.37695312 876.68359375 C403.40900169 876.59271282 405.44095256 876.4998418 407.47290039 876.40673828 C409.43875953 876.31854041 411.4049273 876.23730865 413.37109375 876.15625 C414.54599365 876.10275391 415.72089355 876.04925781 416.93139648 875.99414062 C419.5767798 875.99919188 421.48777646 876.30824834 424 877 C426.09338937 876.76408695 428.17842918 876.44529026 430.25 876.0625 C431.86648438 875.77052734 431.86648438 875.77052734 433.515625 875.47265625 C434.33546875 875.31667969 435.1553125 875.16070313 436 875 C436 875.66 436 876.32 436 877 C438.01432266 876.49743888 438.01432266 876.49743888 440 875 C441.29920746 871.45411499 441.29920746 871.45411499 442 868 C442.44214844 869.13566406 442.88429688 870.27132812 443.33984375 871.44140625 C444.75300541 873.89389363 445.44295475 874.82845751 448.18017578 875.67138672 C450.99249237 875.92375358 453.73894098 875.96903143 456.5625 875.9375 C458.08568848 875.96058228 458.08568848 875.96058228 459.63964844 875.98413086 C462.76062407 876.02332564 465.87886492 876.01484605 469 876 C470.87892033 876.01080022 472.75783012 876.02370828 474.63671875 876.0390625 C479.0920123 876.06603913 483.54485958 876.04302174 488 876 C488.99 876 489.98 876 491 876 C491.99 873.69 492.98 871.38 494 869 C494.55042969 869.62003906 495.10085938 870.24007812 495.66796875 870.87890625 C499.49079861 874.3559525 503.93178137 875.40037977 509 876 C511.82070377 875.39902531 513.49184976 874.50489015 516 873 C516 872.34 516 871.68 516 871 C516.99 871 517.98 871 519 871 C520.32 868.69 521.64 866.38 523 864 C523.33 864 523.66 864 524 864 C525.53715593 855.32098116 526.28734006 847.1112309 525.375 838.3125 C525.30555176 837.5592041 525.23610352 836.8059082 525.16455078 836.02978516 C524.57332776 831.21647039 523.32445941 828.49875146 520 825 C519.484375 824.278125 518.96875 823.55625 518.4375 822.8125 C513.82267807 819.38096575 508.00153088 818.78750224 502.3515625 819.1875 C499.06873785 819.77131536 499.06873785 819.77131536 496 821 C494.72648134 823.00349004 494.72648134 823.00349004 494 825 C493.9175 824.21625 493.835 823.4325 493.75 822.625 C493.28486822 819.91029234 493.28486822 819.91029234 491.23291016 818.8503418 C488.82465491 817.93322469 487.09114926 817.75569133 484.5234375 817.76953125 C483.688125 817.77146484 482.8528125 817.77339844 481.9921875 817.77539062 C481.12851562 817.78763672 480.26484375 817.79988281 479.375 817.8125 C478.50359375 817.81314453 477.6321875 817.81378906 476.734375 817.81445312 C472.21451153 817.6973661 472.21451153 817.6973661 468 819 C466.31309769 819.04490921 464.624553 819.03883863 462.9375 819 C461.29210014 818.96222898 459.64517844 818.95357521 458 819 C456.68866942 820.081172 456.68866942 820.081172 456.9375 822.6875 C456.958125 823.780625 456.97875 824.87375 457 826 C457.03772913 827.9996441 457.04649906 830.00054061 457 832 C456.67 832.33 456.34 832.66 456 833 C455.67 828.71 455.34 824.42 455 820 C448.79677595 819.24633447 448.79677595 819.24633447 442.5625 819 C440 819 440 819 438 818 C436.00039988 817.960008 433.99952758 817.95653201 432 818 C429.82931832 821.25602252 429.94726782 823.93745063 430.0625 827.76171875 C429.95485801 831.6166474 428.96418004 835.28101983 428 839 C427.93941406 838.04738281 427.87882812 837.09476563 427.81640625 836.11328125 C427.73261719 834.85902344 427.64882813 833.60476563 427.5625 832.3125 C427.48128906 831.07113281 427.40007812 829.82976563 427.31640625 828.55078125 C427.01466171 822.68826689 427.01466171 822.68826689 424 818 C422.41158086 818.20718511 420.82408606 818.42755046 419.24609375 818.703125 C411.86589494 819.67859476 404.31090847 819.08443946 396.9609375 818.12109375 C394.92090671 817.8305917 394.92090671 817.8305917 393 819 Z M529 841 C527.51342682 844.91203468 526.82164413 847.25913717 527.8125 851.375 C530.25319403 854.30383283 530.72140532 854.43824524 534.3125 854.875 C535.87405617 854.94344483 537.43700183 854.98661817 539 855 C540.6396875 855.0928125 540.6396875 855.0928125 542.3125 855.1875 C545.06509094 854.99545877 546.6687928 854.43458904 549 853 C549.08159574 848.83861737 548.98248524 845.0527516 548 841 C541.10359788 838.65782569 536.02589919 839.32101674 529 841 Z M681 889 C681 892.96 681 896.92 681 901 C681.33 901 681.66 901 682 901 C682 897.04 682 893.08 682 889 C681.67 889 681.34 889 681 889 Z M747 889 C746.67 889.66 746.34 890.32 746 891 C746.66 891 747.32 891 748 891 C747.67 890.34 747.34 889.68 747 889 Z M603 890 C604 893 604 893 604 893 Z M662 895 C663 897 663 897 663 897 Z M603 898 C604 900 604 900 604 900 Z M673 901 C670.70366176 904.44450737 670.45983515 906.93812283 670 911 C673.3 910.67 676.6 910.34 680 910 C679.21625 909.2575 678.4325 908.515 677.625 907.75 C675.43495469 905.45566682 674.17268614 903.87841142 673 901 Z M750 908 C749.01 908.66 748.02 909.32 747 910 C747.33 910.66 747.66 911.32 748 912 C749.32 911.34 750.64 910.68 752 910 C751.34 909.34 750.68 908.68 750 908 Z M628 909 C628.33 909.66 628.66 910.32 629 911 C629.66 911 630.32 911 631 911 C631 910.34 631 909.68 631 909 C630.01 909 629.02 909 628 909 Z M681 909 C681 909.99 681 910.98 681 912 C681.66 911.01 682.32 910.02 683 909 C682.34 909 681.68 909 681 909 Z M733 909 C732.01 909.495 732.01 909.495 731 910 C731 910.66 731 911.32 731 912 C732.32 911.34 733.64 910.68 735 910 C734.34 909.67 733.68 909.34 733 909 Z M718 910 C718 910.66 718 911.32 718 912 C718.66 912 719.32 912 720 912 C720 911.34 720 910.68 720 910 C719.34 910 718.68 910 718 910 Z " fill="#000000" transform="translate(0,0)"/>
<path d="M0 0 C-0.33 1.98 -0.66 3.96 -1 6 C-0.67 5.67 -0.34 5.34 0 5 C1.99958364 4.95919217 4.00045254 4.95745644 6 5 C6.33 5.99 6.66 6.98 7 8 C11.95 8.99 11.95 8.99 17 10 C16.34 11.65 15.68 13.3 15 15 C11.04 15.495 11.04 15.495 7 16 C6.01 18.475 6.01 18.475 5 21 C4.67 20.34 4.34 19.68 4 19 C1.95383439 18.12757089 1.95383439 18.12757089 -0.4375 17.4375 C-4.87341772 16.06329114 -4.87341772 16.06329114 -7 15 C-7.33 14.01 -7.66 13.02 -8 12 C-10.91765 10.0549 -12.62537285 9.54723683 -16 9 C-16 7.68 -16 6.36 -16 5 C-16.763125 4.71125 -17.52625 4.4225 -18.3125 4.125 C-21 3 -21 3 -24 1 C-15.92818698 -0.88735503 -8.15902344 -2.10555444 0 0 Z " fill="#000000" transform="translate(664,399)"/>
<path d="M0 0 C0.66 0.66 1.32 1.32 2 2 C1.67 2.66 1.34 3.32 1 4 C-0.33333333 4.33333333 -1.66666667 4.66666667 -3 5 C-3.33 5.66 -3.66 6.32 -4 7 C-5.98 7 -7.96 7 -10 7 C-10 6.34 -10 5.68 -10 5 C-9.01 5 -8.02 5 -7 5 C-6.67 3.68 -6.34 2.36 -6 1 C-3.125 0.375 -3.125 0.375 0 0 Z " fill="#000000" transform="translate(687,413)"/>
<path d="M0 0 C6.6 0 13.2 0 20 0 C20.66 3.63 21.32 7.26 22 11 C22.66 7.37 23.32 3.74 24 0 C30.93 0 37.86 0 45 0 C45.58186121 12.97758297 46.09987179 25.94516901 46.125 38.9375 C46.12951172 39.90695557 46.13402344 40.87641113 46.13867188 41.87524414 C46.13673828 42.77106201 46.13480469 43.66687988 46.1328125 44.58984375 C46.13168457 45.37222412 46.13055664 46.15460449 46.12939453 46.96069336 C46 49 46 49 45 52 C40.38 52 35.76 52 31 52 C30.67 46.72 30.34 41.44 30 36 C29.01 41.28 28.02 46.56 27 52 C23.7 52 20.4 52 17 52 C16.01 46.06 15.02 40.12 14 34 C13.71080741 39.5494235 13.71080741 39.5494235 13.43188477 45.09936523 C13.11111111 50.88888889 13.11111111 50.88888889 12 52 C8.04 52 4.08 52 0 52 C0 34.84 0 17.68 0 0 Z " fill="#000000" transform="translate(378,821)"/>
<path d="M0 0 C4.95 0 9.9 0 15 0 C16.21527894 4.25347629 17.32671966 8.25611895 18.18359375 12.5546875 C18.38766846 13.5741748 18.59174316 14.59366211 18.80200195 15.64404297 C19.01171631 16.71025879 19.22143066 17.77647461 19.4375 18.875 C19.76463989 20.52653076 19.76463989 20.52653076 20.09838867 22.21142578 C21.38641519 28.75694671 22.64064222 35.30763772 23.8125 41.875 C23.93616943 42.56319824 24.05983887 43.25139648 24.18725586 43.96044922 C24.66290717 46.68993984 25 49.22199777 25 52 C21.83374072 53.05541976 20.14523064 52.9777654 16.875 52.625 C15.54082031 52.48964844 15.54082031 52.48964844 14.1796875 52.3515625 C12 52 12 52 11 51 C10.76712992 49.31816052 10.58735834 47.6287584 10.4375 45.9375 C10.31181641 44.55884766 10.31181641 44.55884766 10.18359375 43.15234375 C10.12300781 42.44207031 10.06242187 41.73179687 10 41 C8.02 41.495 8.02 41.495 6 42 C5.67 45.3 5.34 48.6 5 52 C0.38 52 -4.24 52 -9 52 C-8.48263772 45.36051738 -7.71956815 38.9385896 -6.40234375 32.41015625 C-5.89022785 29.74968429 -5.89022785 29.74968429 -6 26 C-5.34 26 -4.68 26 -4 26 C-3.96261719 25.29617188 -3.92523438 24.59234375 -3.88671875 23.8671875 C-3.34189884 15.6842061 -1.83805251 7.99153265 0 0 Z M7 28 C7 29.98 7 31.96 7 34 C7.66 34 8.32 34 9 34 C9 32.02 9 30.04 9 28 C8.34 28 7.68 28 7 28 Z " fill="#000000" transform="translate(434,821)"/>
<path d="M0 0 C4.29 0 8.58 0 13 0 C14.76405007 4.65067745 16.42548518 9.27645553 18 14 C18.33 9.38 18.66 4.76 19 0 C22.96 0 26.92 0 31 0 C31 17.16 31 34.32 31 52 C26.38 52 21.76 52 17 52 C15.34637947 48.26137967 13.99575243 44.98300973 13 41 C12.67 44.63 12.34 48.26 12 52 C8.04 52 4.08 52 0 52 C0 34.84 0 17.68 0 0 Z " fill="#000000" transform="translate(460,821)"/>
<path d="M0 0 C4.48035444 2.19944673 6.86312614 4.50131818 9 9 C10.74239133 14.54583918 10.26685452 20.49866952 10.3125 26.25 C10.34150391 27.45269531 10.37050781 28.65539062 10.40039062 29.89453125 C10.45182497 37.10325194 9.94394235 41.90149655 6 48 C2.10990536 51.65433133 -1.64229616 52.29662064 -6.9375 52.21875 C-11.07724579 51.77968605 -14.00776398 50.06066609 -16.8125 47.0625 C-20.07505859 41.39595087 -19.25825984 34.65913697 -19.29516602 28.3203125 C-19.30666292 26.94716061 -19.32707894 25.57405261 -19.35668945 24.20117188 C-19.53164395 16.07702776 -19.58124808 9.87610618 -15 3 C-10.80522258 -0.94802581 -5.45729372 -0.78710967 0 0 Z M-6 15 C-6 22.26 -6 29.52 -6 37 C-5.34 37 -4.68 37 -4 37 C-4 29.74 -4 22.48 -4 15 C-4.66 15 -5.32 15 -6 15 Z " fill="#000000" transform="translate(512,821)"/>
<path d="M0 0 C4.29 0 8.58 0 13 0 C13 12.21 13 24.42 13 37 C13.99 37 14.98 37 16 37 C16 24.79 16 12.58 16 0 C20.29 0 24.58 0 29 0 C29.09922655 5.85322174 29.17163763 11.70594877 29.21972656 17.55981445 C29.23978337 19.54915908 29.26703585 21.53844518 29.30175781 23.52758789 C29.35053771 26.39484131 29.37302827 29.26131211 29.390625 32.12890625 C29.41127014 33.01147598 29.43191528 33.89404572 29.45318604 34.80335999 C29.45531457 40.72377434 28.457641 44.15418308 25 49 C20.28156867 52.4016598 15.62496949 52.72710557 10 52 C4.74622913 50.21570046 2.57536073 47.8655487 0 43 C-0.52751909 39.65870557 -0.46724024 36.38340512 -0.390625 33.0078125 C-0.38496521 32.06187225 -0.37930542 31.11593201 -0.37347412 30.1413269 C-0.35117571 27.13535858 -0.30099138 24.13060489 -0.25 21.125 C-0.22992656 19.08074644 -0.21167727 17.03647411 -0.1953125 14.9921875 C-0.15133228 9.99432735 -0.08234985 4.99736925 0 0 Z " fill="#000000" transform="translate(555,821)"/>
<path d="M0 0 C4.29 0 8.58 0 13 0 C15.78609311 4.93898323 16.91463082 9.48966417 18 15 C18.33 10.38 18.66 5.76 19 1 C18.34 0.67 17.68 0.34 17 0 C21.62 0 26.24 0 31 0 C31 17.16 31 34.32 31 52 C27.37 52 23.74 52 20 52 C19.67 52.66 19.34 53.32 19 54 C14.08406867 50.72271244 14.25537231 45.61928557 13 40 C12.67 43.96 12.34 47.92 12 52 C8.04 52 4.08 52 0 52 C0 34.84 0 17.68 0 0 Z " fill="#000000" transform="translate(586,821)"/>
<path d="M0 0 C4.29 0 8.58 0 13 0 C13 17.16 13 34.32 13 52 C10.69 52 8.38 52 6 52 C6 52.66 6 53.32 6 54 C7.65 54 9.3 54 11 54 C9.68 54.66 8.36 55.32 7 56 C6.01 55.34 5.02 54.68 4 54 C4.33 53.34 4.66 52.68 5 52 C3.35 52 1.7 52 0 52 C0 34.84 0 17.68 0 0 Z " fill="#000000" transform="translate(620,821)"/>
<path d="M0 0 C1.084021 0.00523682 2.16804199 0.01047363 3.28491211 0.01586914 C5.03964844 0.02070312 5.03964844 0.02070312 6.82983398 0.02563477 C8.67738281 0.03820312 8.67738281 0.03820312 10.56225586 0.05102539 C12.41560547 0.05779297 12.41560547 0.05779297 14.30639648 0.06469727 C17.37089703 0.07652931 20.43530307 0.09301366 23.49975586 0.11352539 C23.52661524 2.25929176 23.54608674 4.40515184 23.56225586 6.55102539 C23.57385742 7.74598633 23.58545898 8.94094727 23.59741211 10.17211914 C23.49975586 13.11352539 23.49975586 13.11352539 22.49975586 14.11352539 C20.48011387 14.18596592 18.45808462 14.19729727 16.43725586 14.17602539 C15.3325293 14.16700195 14.22780273 14.15797852 13.08959961 14.14868164 C12.23495117 14.13708008 11.38030273 14.12547852 10.49975586 14.11352539 C10.49975586 15.76352539 10.49975586 17.41352539 10.49975586 19.11352539 C12.80975586 19.11352539 15.11975586 19.11352539 17.49975586 19.11352539 C17.52661524 21.25929176 17.54608674 23.40515184 17.56225586 25.55102539 C17.57385742 26.74598633 17.58545898 27.94094727 17.59741211 29.17211914 C17.49975586 32.11352539 17.49975586 32.11352539 16.49975586 33.11352539 C14.51975586 33.11352539 12.53975586 33.11352539 10.49975586 33.11352539 C10.49975586 39.38352539 10.49975586 45.65352539 10.49975586 52.11352539 C5.87975586 52.11352539 1.25975586 52.11352539 -3.50024414 52.11352539 C-3.52488527 44.8686549 -3.54307594 37.62380857 -3.55517578 30.37890625 C-3.5602177 27.91210506 -3.56705105 25.44530687 -3.57568359 22.97851562 C-3.58775539 19.4414801 -3.5934737 15.90448394 -3.59790039 12.36743164 C-3.60306168 11.25703018 -3.60822296 10.14662872 -3.61354065 9.00257874 C-3.61361618 7.98159592 -3.61369171 6.9606131 -3.61376953 5.90869141 C-3.61599014 5.0049025 -3.61821075 4.10111359 -3.62049866 3.16993713 C-3.44178882 0.11391049 -3.07466866 0.13960755 0 0 Z " fill="#000000" transform="translate(663.500244140625,820.886474609375)"/>
<path d="M0 0 C0.33 0 0.66 0 1 0 C1 11.55 1 23.1 1 35 C0.67 35 0.34 35 0 35 C0 23.45 0 11.9 0 0 Z " fill="#000000" transform="translate(376,825)"/>
<path d="M0 0 C3.12578143 1.6720747 5.39281175 3.7856235 7 7 C7.32585719 11.41020894 7.32460807 15.82925334 7.375 20.25 C7.41238281 21.47847656 7.44976563 22.70695313 7.48828125 23.97265625 C7.58728318 34.12585369 7.58728318 34.12585369 4.6640625 37.796875 C0.60535835 41.15334002 -2.72197341 41.28451092 -7.77734375 41.21875 C-10.85372002 40.91597835 -12.65392676 39.9906076 -15 38 C-18.30649858 32.8296262 -17.40953971 26.54015442 -17.4375 20.625 C-17.47037109 19.40554688 -17.50324219 18.18609375 -17.53710938 16.9296875 C-17.59730726 6.90400288 -17.59730726 6.90400288 -14.59765625 3.2109375 C-10.03489095 -0.67255898 -5.85038813 -0.8242507 0 0 Z M-6 11 C-6 16.94 -6 22.88 -6 29 C-5.34 29 -4.68 29 -4 29 C-4 23.06 -4 17.12 -4 11 C-4.66 11 -5.32 11 -6 11 Z " fill="#000000" transform="translate(704,832)"/>
<path d="M0 0 C5.66666667 0 11.33333333 0 17 0 C17 3.63 17 7.26 17 11 C15.02 11.99 15.02 11.99 13 13 C11.40131197 17.39639208 11.92492657 22.37547651 12 27 C12.0257023 28.58326178 12.04666609 30.16660878 12.0625 31.75 C12.07410156 32.44609375 12.08570313 33.1421875 12.09765625 33.859375 C12 36 12 36 11 41 C7.37 41 3.74 41 0 41 C-1.66880615 37.66238769 -0.99628371 33.93240477 -0.87890625 30.2734375 C-0.85529526 29.41062164 -0.83168427 28.54780579 -0.80735779 27.65884399 C-0.73065703 24.89739794 -0.64666038 22.13622782 -0.5625 19.375 C-0.50928573 17.50522193 -0.45654529 15.63543031 -0.40429688 13.765625 C-0.27503321 9.17690791 -0.13922496 4.58842523 0 0 Z " fill="#000000" transform="translate(713,832)"/>
<path d="M0 0 C3.63 0 7.26 0 11 0 C11 0.66 11 1.32 11 2 C11.515625 1.649375 12.03125 1.29875 12.5625 0.9375 C15.95033509 -0.3655135 18.4768781 0.35943238 22 1 C24.9254644 1.2236068 24.9254644 1.2236068 27 0 C32.36899365 -0.45693563 32.36899365 -0.45693563 34.8125 1.3125 C37.51199847 5.14862941 37.14532096 9.21473115 37.1328125 13.6953125 C37.13376923 14.44336151 37.13472595 15.19141052 37.13571167 15.96212769 C37.13639143 17.54067062 37.13455137 19.11921636 37.13037109 20.69775391 C37.1250049 23.12278455 37.13033064 25.54763125 37.13671875 27.97265625 C37.13605823 29.50520874 37.1347776 31.03776112 37.1328125 32.5703125 C37.13483673 33.29944855 37.13686096 34.02858459 37.13894653 34.77981567 C37.1149618 39.8850382 37.1149618 39.8850382 36 41 C32.7 41 29.4 41 26 41 C26 31.43 26 21.86 26 12 C25.34 12 24.68 12 24 12 C24 21.57 24 31.14 24 41 C15 42 15 42 13 41 C13 31.43 13 21.86 13 12 C12.34 12 11.68 12 11 12 C11 21.57 11 31.14 11 41 C7.7 41 4.4 41 1 41 C0 40 0 40 -0.11352539 36.21459961 C-0.11336622 34.52717271 -0.10766917 32.83974095 -0.09765625 31.15234375 C-0.0962413 30.2659169 -0.09482635 29.37949005 -0.09336853 28.46620178 C-0.08775215 25.62326746 -0.07519691 22.78041069 -0.0625 19.9375 C-0.05748711 18.01497509 -0.05292384 16.09244896 -0.04882812 14.16992188 C-0.03777741 9.44658451 -0.02050183 4.72330542 0 0 Z " fill="#000000" transform="translate(732,832)"/>
<path d="M0 0 C4.95 0 9.9 0 15 0 C15 2.97 15 5.94 15 9 C10.05 9 5.1 9 0 9 C0 6.03 0 3.06 0 0 Z " fill="#000000" transform="translate(531,843)"/>
<path d="M0 0 C4.95 0 9.9 0 15 0 C15 2.97 15 5.94 15 9 C10.05 9 5.1 9 0 9 C-1 2 -1 2 0 0 Z " fill="#000000" transform="translate(643,843)"/>
<path d="M0 0 C0.66 0.33 1.32 0.66 2 1 C1.99214478 1.9446814 1.99214478 1.9446814 1.98413086 2.90844727 C1.96319862 5.79312115 1.9502885 8.67777898 1.9375 11.5625 C1.92912109 12.55314453 1.92074219 13.54378906 1.91210938 14.56445312 C1.89805413 18.79508336 1.89065606 22.90626672 2.56640625 27.08984375 C3 30 3 30 2 32 C0.35 31.67 -1.3 31.34 -3 31 C-2.855625 29.7625 -2.71125 28.525 -2.5625 27.25 C-1.89435739 20.74737261 -1.64794039 14.2239653 -1.39282227 7.69433594 C-1.35600342 6.84516602 -1.31918457 5.99599609 -1.28125 5.12109375 C-1.25095703 4.3520874 -1.22066406 3.58308105 -1.18945312 2.79077148 C-1 1 -1 1 0 0 Z " fill="#000000" transform="translate(729,845)"/>
<path d="M0 0 C1.11858398 0.00580078 1.11858398 0.00580078 2.25976562 0.01171875 C3.37254883 0.00591797 3.37254883 0.00591797 4.5078125 0 C10.06899561 0.01008374 10.06899561 0.01008374 12.32226562 1.13671875 C12.13664063 2.02359375 11.95101562 2.91046875 11.75976562 3.82421875 C11.32968538 7.08054062 11.62952156 8.98088468 12.32226562 12.13671875 C12.36051185 14.46973861 12.36800847 16.80383383 12.32226562 19.13671875 C15.11066412 20.06618492 16.54076496 20.1964842 19.38476562 20.07421875 C23.32226562 20.13671875 23.32226562 20.13671875 25.32226562 22.13671875 C24.08476563 22.28109375 22.84726562 22.42546875 21.57226562 22.57421875 C18.61506484 23.27157284 17.60762743 23.70789208 15.90039062 26.2734375 C14.91927134 28.53783236 14.05869964 30.7820679 13.32226562 33.13671875 C10.96273468 30.77718781 10.83085149 29.35776258 10.32226562 26.13671875 C6.26364946 24.78384669 2.28906382 24.70658626 -1.96289062 24.41796875 C-4.67773438 24.13671875 -4.67773438 24.13671875 -6.67773438 23.13671875 C-6.51273438 22.37359375 -6.34773437 21.61046875 -6.17773438 20.82421875 C-5.3962155 15.06051703 -5.07269197 9.08319238 -6.24804688 3.359375 C-6.38984375 2.62589844 -6.53164063 1.89242187 -6.67773438 1.13671875 C-4.86585595 -0.67515967 -2.40795928 0.00437413 0 0 Z " fill="#000000" transform="translate(645.677734375,853.86328125)"/>
<path d="M0 0 C0.66 0 1.32 0 2 0 C5.40918098 6.25016514 5.53524715 11.95944139 5 19 C4.67 19.99 4.34 20.98 4 22 C2.0625 22.75 2.0625 22.75 0 23 C-0.66 22.67 -1.32 22.34 -2 22 C-1.86145912 18.70798357 -1.71292976 15.41649291 -1.5625 12.125 C-1.50352539 10.71927734 -1.50352539 10.71927734 -1.44335938 9.28515625 C-1.40146484 8.38925781 -1.35957031 7.49335937 -1.31640625 6.5703125 C-1.27974854 5.74289551 -1.24309082 4.91547852 -1.20532227 4.06298828 C-1 2 -1 2 0 0 Z " fill="#000000" transform="translate(677,856)"/>
<path d="M0 0 C0.99 0.66 1.98 1.32 3 2 C7.93190258 4.75106128 13.03872147 5.69782394 18.5859375 4.390625 C20.76067131 3.66342694 22.88504182 2.8849825 25 2 C27 4 27 4 27 5.9375 C25.43698228 9.16122405 23.2887262 9.83927311 20 11 C17.625 10.1875 17.625 10.1875 16 9 C16 8.34 16 7.68 16 7 C14.02 7 12.04 7 10 7 C9.731875 7.598125 9.46375 8.19625 9.1875 8.8125 C8.01506533 10.97224808 6.80630718 12.35790256 5 14 C4.608125 13.566875 4.21625 13.13375 3.8125 12.6875 C1.71680722 10.73633776 -0.51589333 9.40989838 -3 8 C-2.74438677 5.6568787 -2.40729228 3.32156597 -2 1 C-1.34 0.67 -0.68 0.34 0 0 Z " fill="#000000" transform="translate(686,869)"/>
<path d="M0 0 C2.1875 1.40625 2.1875 1.40625 4 4 C4.59524615 7.34253609 4.55805877 10.61323857 4.5 14 C4.51546875 14.90234375 4.5309375 15.8046875 4.546875 16.734375 C4.50796768 23.30971197 4.50796768 23.30971197 2.1171875 26.55859375 C-0.48231464 28.3283655 -1.82447487 29.07560774 -5 29 C-7.68713765 27.38771741 -9.18650408 26.45134858 -11 24 C-11.83477257 20.62195365 -11.74979134 17.39921172 -11.625 13.9375 C-11.63144531 13.03966797 -11.63789062 12.14183594 -11.64453125 11.21679688 C-11.57861883 7.18715148 -11.53430963 4.76018731 -9.1796875 1.41015625 C-5.9569254 -0.67482067 -3.74987744 -0.53569678 0 0 Z M-4 8 C-4 11.96 -4 15.92 -4 20 C-3.67 20 -3.34 20 -3 20 C-3 16.04 -3 12.08 -3 8 C-3.33 8 -3.66 8 -4 8 Z " fill="#000000" transform="translate(651,881)"/>
<path d="M0 0 C2.90717073 2.21863029 3.83981643 3.51944929 5 7 C5.12040604 9.12250645 5.17533819 11.24911587 5.1875 13.375 C5.20167969 14.49648438 5.21585938 15.61796875 5.23046875 16.7734375 C4.90155845 21.37818175 3.87663057 24.05031689 0.75 27.4375 C-2 29 -2 29 -5.125 28.4375 C-7.78671222 27.10664389 -9.1762064 26.28065373 -11 24 C-11.37231445 21.97875977 -11.37231445 21.97875977 -11.36328125 19.69140625 C-11.36263672 18.86189453 -11.36199219 18.03238281 -11.36132812 17.17773438 C-11.34521484 16.31470703 -11.32910156 15.45167969 -11.3125 14.5625 C-11.31572266 13.70333984 -11.31894531 12.84417969 -11.32226562 11.95898438 C-11.2598619 4.64640264 -11.2598619 4.64640264 -9 1 C-5.90826248 -0.54586876 -3.40570448 -0.29359521 0 0 Z M-4 8 C-4 11.96 -4 15.92 -4 20 C-3.67 20 -3.34 20 -3 20 C-3 16.04 -3 12.08 -3 8 C-3.33 8 -3.66 8 -4 8 Z " fill="#000000" transform="translate(768,881)"/>
</svg>
